<svg width="520" height="580" viewBox="0 0 520 580" xmlns="http://www.w3.org/2000/svg" xmlns:xlink="http://www.w3.org/1999/xlink">
    <defs>
        <path d="m39.107 110.972 6.689-26.74 12.548 1.754c10.615 1.484 20.683-5.112 23.564-15.432l9.994-35.773C95.974 20.2 87.45 5.08 72.87 1.01 70.47.34 67.99 0 65.503 0H43.01a18.05 18.05 0 0 0-17.46 13.474L0 110.972h39.107z" id="a"/>
        <path d="m39.107 110.972 6.689-26.74 12.548 1.754c10.615 1.484 20.683-5.112 23.564-15.432l9.994-35.773C95.974 20.2 87.45 5.08 72.87 1.01 70.47.34 67.99 0 65.503 0H43.01a18.05 18.05 0 0 0-17.46 13.474L0 110.972h39.107z" id="c"/>
        <path d="m44.78 36.088-1.912-1.91c-4.118-4.121-10.79-4.159-14.958-.084-3.963 3.875-4.034 10.23-.16 14.192.11.112.223.222.338.329l1.358 1.265C22.266 52.97 12.45 54.839 0 55.486l17.735-45.291A16.044 16.044 0 0 1 32.675 0H61.84c-6.197 16.044-11.88 28.074-17.06 36.088z" id="e"/>
    </defs>
    <g fill="none" fill-rule="evenodd">
        <path d="m251.295 487.912 76.195-7.02-11.03 19.389 21.465 12.107a2.687 2.687 0 0 1 1.364 2.313 2.683 2.683 0 0 1-2.66 2.694c-24.5.147-42.536.16-54.106.053-13.1-.127-23.92-.374-32.463-.742l1.235-28.794zm-214.273-67.52 20.055 48.133-25.272 9.288-26.34 32.796a2.663 2.663 0 0 1-2.405.983 2.67 2.67 0 0 1-2.335-2.975l9.327-77.455 26.97-10.77z" fill="#002D6F"/>
        <path d="m328.56 298.391 73.28 45.386c16.9 10.467 22.422 32.472 12.462 49.677l-56.997 98.469-115.053-.025L353.628 379.28l-88.91-33.091-79.623 50.328L72.523 506.966 27.997 400.131l107.7-39.903 60.165-37.437 26.406-31.42 106.291 7.02z" fill="#FFF"/>
        <path d="m353.635 379.583-110.252 111.48 113.561.024 56.85-98.22c9.826-16.969 4.378-38.673-12.288-48.998l-73.174-45.32-105.914-6.994-26.294 31.286-60.233 37.478-.09.045-107.21 39.721 44.04 105.671 112.043-109.93.083-.067 79.833-50.46 88.804 33.05 2.447-3.059a.498.498 0 0 1 .702-.078c.22.173.254.488.08.705l-2.24 2.8.074.03-.1.106 2.14 1.339a.503.503 0 0 1 .16.691.499.499 0 0 1-.689.16l-2.333-1.46zm-158.176-57.509-.051.06.119-.102-.068.042zm0 0 26.518-31.553 106.67 7.044 73.388 45.451c17.127 10.61 22.722 32.915 12.628 50.355l-57.137 98.719-116.545-.025 111.678-112.92-87.954-32.733-79.367 50.167L72.275 507.508l-45.011-108 108.14-40.067 60.055-37.367zm-60.054 37.367-.044.027.091-.045-.047.018z" fill="#002D6F" fill-rule="nonzero"/>
        <path d="m257.962 193.77 50.197.583 49.032 4.702 106.005 6.748L436.12 82.8l44.456.334c25.403 94.163 38.158 142.701 38.252 145.615.568 16.974-12.729 31.195-29.702 31.764L341.528 249.59l-13.704 46.127-66.52-3.008-3.342-98.939z" fill="#FFF"/>
        <path d="m328.52 296.252-71.06-6.09.337-96.898.505.006 50.24.585 49.017 4.7 105.336 6.706-27.068-122.968 45.465.342.1.368c25.49 94.467 38.172 142.75 38.272 145.729.582 17.25-12.935 31.703-30.243 32.28L342.224 250.12l-13.705 46.132zm-70.055-7.011 69.326 5.942 13.704-46.122.401.03 147.545 10.92c16.7-.56 29.782-14.549 29.22-31.246-.093-2.844-12.881-51.515-38.138-145.133l-43.446-.326 27.082 123.04-.662-.042-106.018-6.75-48.991-4.7-49.692-.576-.33 94.963z" fill="#002D6F" fill-rule="nonzero"/>
        <path fill="#002D6F" d="m296.067 297.054 32.526.877 1.738-7.02-34.264-1.21z"/>
        <path d="M128.607 137.616 81.6 295.106c-3.062 10.259 2.474 21.114 12.577 24.66l20.057 7.036 101.612-67.853.071-65.179-46.866 18.384 26.072-74.538-18.05-43.453-19.052 9.36-29.414 34.093z" fill="#FFF"/>
        <path d="M196.093 137.115h-67.596L81.383 294.962c-3.139 10.516 2.536 21.643 12.892 25.276l20.293 7.12 102.044-68.14.07-66.183-46.533 18.253 25.944-74.173zm-66.849 1.002h65.436l-26.198 74.903 47.197-18.514-.07 64.175-101.181 67.566-19.82-6.955c-9.851-3.456-15.25-14.04-12.264-24.044l46.9-157.13z" fill="#002D6F" fill-rule="nonzero"/>
        <path fill="#FFF" d="m197.128 154.998-3.64 15.59-74.575-18.933 3.375-16.044z"/>
        <path d="m197.594 154.599-4.044 16.216-75.242-18.76 4.043-16.217 75.243 18.76zm-1.216.73-73.296-18.275-3.559 14.27L192.82 169.6l3.558-14.27z" fill="#002D6F" fill-rule="nonzero"/>
        <path d="M126.978 145.604a4.178 4.178 0 1 0 8.108 2.021 4.178 4.178 0 0 0-8.108-2.021zm.973.243a3.175 3.175 0 1 1 6.162 1.535 3.175 3.175 0 0 1-6.162-1.535z" fill="#002D6F" fill-rule="nonzero"/>
        <path d="m294.078 283.987-13.338-.933a5.348 5.348 0 0 0-5.708 4.963l-.653 9.336a5.348 5.348 0 0 0 4.962 5.708l13.338.933a5.349 5.349 0 0 0 5.708-4.963l.653-9.336a5.348 5.348 0 0 0-4.962-5.708z" fill="#FFF" fill-rule="nonzero"/>
        <path d="m280.739 282.909 13.337.932a5.348 5.348 0 0 1 4.962 5.708l-.653 9.336a5.348 5.348 0 0 1-5.708 4.962l-13.338-.932a5.348 5.348 0 0 1-4.961-5.709l.652-9.336a5.349 5.349 0 0 1 5.709-4.961zm-.07 1a4.345 4.345 0 0 0-4.638 4.031l-.653 9.337a4.345 4.345 0 0 0 4.032 4.637l13.337.933a4.345 4.345 0 0 0 4.638-4.031l.652-9.337a4.345 4.345 0 0 0-4.03-4.638l-13.339-.932z" fill="#002D6F" fill-rule="nonzero"/>
        <path d="m214.554 416.161.635-276.54h.631v-1.378H100.195v-35.71L215.248.573h42.703v101.96h32.768v35.71H257.95v1.379h.011v296.146h-.011v81.239h32.768v35.705H257.95v26.787h-42.13v-26.787H100.194v-35.705l114.36-100.846zm-69.499 100.833h70.193l-.334-58.496-69.859 58.496zm-.07-414.14h70.193l-.264-58.828-69.929 58.828z" fill="#EEF5FF"/>
        <path d="m214.317 415.935.634-276.314c0-.277.225-.5.502-.5h.13v-.377H100.459a.502.502 0 0 1-.501-.5v-35.711a.5.5 0 0 1 .17-.375L215.18.198a.503.503 0 0 1 .332-.126h42.703c.277 0 .501.224.501.5v101.46h32.267c.277 0 .501.224.501.501v35.71a.502.502 0 0 1-.501.501h-32.267v.77c.007.035.011.07.011.108v296.146a.52.52 0 0 1-.01.108v80.63h32.266c.277 0 .501.22.501.5v35.706c0 .28-.224.501-.501.501h-32.267V579.5a.503.503 0 0 1-.501.501h-42.13a.503.503 0 0 1-.502-.501v-26.286H100.459a.499.499 0 0 1-.501-.501v-35.705c0-.147.062-.28.17-.381l114.19-100.691zm1.266-276.815h.501l-.501.502v-.502zm-.263 277.043c0 .143-.062.28-.17.375L100.96 517.234v34.976h115.124c.277 0 .502.228.502.502v26.285h41.127v-26.285c0-.274.225-.502.502-.502h32.266v-34.702h-32.266a.503.503 0 0 1-.502-.501v-81.239c0-.036.004-.072.012-.107V139.73a.52.52 0 0 1-.012-.107v-1.379c0-.277.225-.501.502-.501h32.266v-34.708h-32.266a.501.501 0 0 1-.502-.501V1.074h-42.01L100.96 102.76v34.983h115.123c.277 0 .502.224.502.501v1.379a.501.501 0 0 1-.502.5h-.131l-.633 276.04zm-70 101.332a.504.504 0 0 1-.322-.89l69.858-58.492a.501.501 0 0 1 .823.382l.335 58.492a.503.503 0 0 1-.502.508H145.32zm69.688-1.003-.325-56.926-67.984 56.926h68.31zM145.25 103.355a.501.501 0 0 1-.323-.885l69.93-58.827a.5.5 0 0 1 .823.38l.264 58.829a.5.5 0 0 1-.501.503h-70.193zm69.69-1.003-.257-57.253-68.058 57.253h68.315z" fill="#002D6F" fill-rule="nonzero"/>
        <path d="M195.457 374.266c-64.592 0-95.262-29.949-95.262-84.465 0-54.283 30.67-83.998 95.262-83.998 64.36 0 95.262 29.95 95.262 83.998 0 54.282-30.902 84.465-95.262 84.465zm-.334-35.43c37.198 0 54.149-18.447 54.149-49.035 0-30.354-16.951-48.567-54.15-48.567-37.197 0-54.148 17.98-54.148 48.567 0 30.822 16.951 49.034 54.149 49.034z" fill="#EEF5FF" fill-rule="nonzero"/>
        <path d="M195.721 374.768c-63.712 0-95.763-29.12-95.763-84.967 0-55.582 32.024-84.499 95.763-84.499 63.497 0 95.763 29.142 95.763 84.499 0 55.621-32.293 84.967-95.763 84.967zm0-1.003c62.937 0 94.76-28.919 94.76-83.964 0-54.78-31.795-83.496-94.76-83.496-63.206 0-94.76 28.492-94.76 83.496 0 55.27 31.582 83.964 94.76 83.964zm-.334-34.428c-36.316 0-54.65-17.34-54.65-49.536 0-31.93 18.311-49.068 54.65-49.068 36.248 0 54.65 17.284 54.65 49.068 0 32.05-18.423 49.536-54.65 49.536zm0-1.003c35.685 0 53.647-17.048 53.647-48.533 0-31.215-17.94-48.066-53.647-48.066-35.8 0-53.648 16.706-53.648 48.066 0 31.629 17.874 48.533 53.648 48.533z" fill="#002D6F" fill-rule="nonzero"/>
        <path d="M133.697 359.893c-22.564-13.909-33.502-37.65-33.502-70.092 0-32.6 11.139-56.338 34.126-70.1l19.748 34.375c-8.867 8.317-13.095 20.449-13.095 35.725 0 14.89 3.956 26.838 12.24 35.21l-19.517 34.882zm123.52 0L237.7 325.01c8.284-8.372 12.24-20.32 12.24-35.21 0-15.276-4.228-27.408-13.095-35.725l19.748-34.376c22.987 13.763 34.126 37.502 34.126 70.1 0 32.443-10.937 56.184-33.502 70.093z" fill="#002D6F" fill-rule="nonzero"/>
        <path d="M130.036 293.845a8.525 8.525 0 0 1-16.897 0l-.556.556a.502.502 0 1 1-.709-.71l1.691-1.69 1.692 1.69a.503.503 0 0 1-.709.71l-.364-.365a7.524 7.524 0 0 0 6.902 6.177v-14.396a3.176 3.176 0 1 1 1.003 0v14.396a7.524 7.524 0 0 0 6.903-6.177l-.365.365a.502.502 0 1 1-.709-.71l1.691-1.69 1.692 1.69a.503.503 0 0 1-.709.71l-.556-.556zm-9.01-9.065a2.172 2.172 0 1 0 1.124-4.196 2.172 2.172 0 0 0-1.125 4.196zM269.828 300.213v-14.396a3.175 3.175 0 1 0-1.003 0v14.396a7.524 7.524 0 0 1-6.902-6.177l.364.365a.502.502 0 1 0 .71-.71l-1.692-1.69-1.692 1.69a.502.502 0 1 0 .71.71l.555-.556a8.525 8.525 0 0 0 16.897 0l.556.556a.502.502 0 1 0 .71-.71l-1.692-1.69-1.692 1.69a.502.502 0 1 0 .71.71l.364-.365a7.524 7.524 0 0 1-6.903 6.177zm.06-15.433a2.173 2.173 0 1 1-1.123-4.197 2.173 2.173 0 0 1 1.124 4.197z" fill="#FFF" fill-rule="nonzero"/>
        <path d="m399.02 94.163-44.41 8.514c4.854 5.362 11.051 8.18 18.599 8.453 7.547.273 17.869-.598 30.965-2.614l-5.154-14.353z" fill="#FFF"/>
        <path d="m388.116 94.935-.247-.972-34.314 8.705.561.618c4.94 5.463 11.271 8.34 18.952 8.617 7.581.274 17.936-.6 31.059-2.619l-.154-.991c-13.07 2.01-23.357 2.88-30.871 2.608-7.12-.257-13.003-2.812-17.669-7.674l32.683-8.292z" fill="#002D6F" fill-rule="nonzero"/>
        <g transform="translate(269.327 82.799)">
            <mask id="b" fill="#fff">
                <use xlink:href="#a"/>
            </mask>
            <g mask="url(#b)">
                <path d="m39.107 110.972 6.689-26.74 12.548 1.754c10.615 1.484 20.683-5.112 23.564-15.432l9.994-35.773C95.974 20.2 87.45 5.08 72.87 1.01 70.47.34 67.99 0 65.503 0H43.01a18.05 18.05 0 0 0-17.46 13.474L0 110.972h39.107z" fill="#FFF" fill-rule="nonzero"/>
                <g>
                    <mask id="d" fill="#fff">
                        <use xlink:href="#c"/>
                    </mask>
                    <g mask="url(#d)">
                        <path d="m39.107 110.972 6.689-26.74 12.548 1.754c10.615 1.484 20.683-5.112 23.564-15.432l9.994-35.773C95.974 20.2 87.45 5.08 72.87 1.01 70.47.34 67.99 0 65.503 0H43.01a18.05 18.05 0 0 0-17.46 13.474L0 110.972h39.107z" fill="#FFF" fill-rule="nonzero"/>
                        <path d="m87.484 39.87 3.436-.428-.455 6.93a1.853 1.853 0 0 1-2.112 1.721 2.004 2.004 0 0 1-1.705-2.264l.836-5.959z" fill="#002D6F"/>
                    </g>
                </g>
                <path d="M58.277 86.483C69.133 88 79.442 81.25 82.397 70.689l9.987-35.774C96.529 20.07 87.85 4.673 73.01.527A27.947 27.947 0 0 0 65.503-.5H43.01a18.55 18.55 0 0 0-17.945 13.848L-.649 111.473h40.148L46.17 84.79l12.107 1.692zm-19.56 23.987H.65l25.384-96.869A17.548 17.548 0 0 1 43.01.501h22.494c2.447 0 4.88.334 7.233.992C87.05 5.49 95.412 20.333 91.414 34.646l-9.987 35.773c-2.814 10.078-12.648 16.52-23.01 15.07l-13.002-1.816-6.699 26.797z" fill="#002D6F" fill-rule="nonzero"/>
            </g>
        </g>
        <g transform="translate(276.68 82.799)">
            <mask id="f" fill="#fff">
                <use xlink:href="#e"/>
            </mask>
            <path d="m44.78 36.088-1.912-1.91c-4.118-4.121-10.79-4.159-14.958-.084-3.963 3.875-4.034 10.23-.16 14.192.11.112.223.222.338.329l1.358 1.265C22.266 52.97 12.45 54.839 0 55.486l17.735-45.291A16.044 16.044 0 0 1 32.675 0H61.84c-6.197 16.044-11.88 28.074-17.06 36.088z" fill="#002D6F" fill-rule="nonzero" mask="url(#f)"/>
        </g>
        <path fill="#FFF" d="m312.11 69.094 17.385-14.038 12.368 14.038M296.067 69.094l11.03 13.705h37.774l13.37-13.705h-62.174z"/>
        <path fill="#002D6F" fill-rule="nonzero" d="m329.435 56.082 12.047 13.678.755-.663-12.688-14.399-17.753 14.341.63.78z"/>
        <path d="m295.676 69.744 11.03 13.704c.096.118.24.186.392.186h37.773c.134 0 .26-.054.354-.15l13.37-13.705a.5.5 0 0 0-.354-.852h-62.174a.502.502 0 0 0-.39.817zm61.375.186-12.394 12.702h-37.32L297.115 69.93h59.937z" fill="#002D6F" fill-rule="nonzero"/>
        <path fill="#FFF" d="m354.898 123.577 1.003 22.73-10.362-7.688M272.335 178.395h24.805l.668 15.768 9.025-15.768h8.29l-5.352 16.044-42.45-.334z"/>
        <path d="m342.685 122.218-.789 5.63a2.005 2.005 0 1 1-3.97-.558l.815-5.808-10.342-1.932a.498.498 0 0 1-.401-.585.498.498 0 0 1 .581-.4l17.047 3.183c.274.05.455.313.401.585a.499.499 0 0 1-.581.4l-2.761-.515zm12.287.53 5.174-1a.501.501 0 0 1 .194.985l-4.92.95.976 22.267a.498.498 0 0 1-.796.425l-1.537-1.139 1.838 6.419a7.533 7.533 0 0 1-5.047-4.56l-.3-.788a27.195 27.195 0 0 1-13.371 2.56l-8.69-.555 18.276-8.487-1.53-1.137a.508.508 0 0 1-.107-.702.503.503 0 0 1 .701-.104l9.52 7.06-.956-21.677a.499.499 0 0 1 .575-.517zM298.05 194.848l-6.98 24.987a.502.502 0 1 1-.966-.27l6.908-24.725-29.695-.234a.501.501 0 0 1-.473-.654l5.014-15.71a.501.501 0 0 1 .477-.349h24.805c.268 0 .49.212.501.481l.595 14.033 8.162-14.261a.5.5 0 0 1 .435-.253h8.29c.34 0 .581.336.474.66l-5.35 16.045a.501.501 0 0 1-.48.342l-11.716-.092zm-30.044-1.24 29.287.231-.633-14.943H272.7l-4.695 14.713zm41.405.327 5.01-15.039h-7.297l-8.558 14.953 10.845.086z" fill="#002D6F" fill-rule="nonzero"/>
        <path d="M360.714 102.854h39.308c2.006 8.914 9.8 13.37 23.398 13.37 2.68 0 6.003-.978 9.967-2.935l10.088-.073V82.799h-105.29c1.331 11.433 11.018 20.055 22.53 20.055z" fill="#FFF"/>
        <path d="M423.346 116.725c2.748 0 6.11-.982 10.088-2.936l10.469-.075V82.297H337.55l.067.56c1.357 11.686 11.257 20.498 23.023 20.498h38.913c2.2 8.919 10.188 13.37 23.792 13.37zM442.9 83.3v29.418l-9.7.07-.107.05c-3.897 1.927-7.153 2.885-9.747 2.885-13.383 0-20.964-4.332-22.91-12.979l-.086-.392h-39.71c-11.063 0-20.409-8.15-21.96-19.052H442.9z" fill="#002D6F" fill-rule="nonzero"/>
        <path d="M337.818 83.207c6.404 4.575 14.072 4.575 22.916.038l-.454-.892c-8.537 4.377-15.804 4.377-21.874.038l-.588.816z" fill="#002D6F" fill-rule="nonzero"/>
        <path fill="#FFF" fill-rule="nonzero" d="M459.185 81.462H443.14v60.834h16.044z"/>
        <path d="M442.733 81.462h16.713v60.834h-16.713V81.462zm1.003 59.83h14.707V82.466h-14.707v58.828z" fill="#002D6F" fill-rule="nonzero"/>
        <path d="M451.09 135.443a4.179 4.179 0 1 0-.002-8.357 4.179 4.179 0 0 0 .001 8.357zm0-1.002a3.177 3.177 0 0 1 0-6.351 3.177 3.177 0 0 1 0 6.35zM258.296 102.018l-157.433.334.002 1.003 157.433-.334z" fill="#002D6F" fill-rule="nonzero"/>
        <path stroke="#002D6F" stroke-width="1.5" d="m258.296 137.95-42.854.669"/>
        <path d="M244.425 553.26h-14.373v25.57a.503.503 0 0 1-.501.501.503.503 0 0 1-.502-.5V553.26h-13.203v-1.003h42.785v1.003h-13.203v25.57a.503.503 0 0 1-.502.501.503.503 0 0 1-.501-.5V553.26zM290.587 516.492H100.864a.499.499 0 0 0-.502.502c0 .274.225.501.502.501h189.723a.503.503 0 0 0 .501-.501.499.499 0 0 0-.501-.502z" fill="#002D6F" fill-rule="nonzero"/>
        <path d="M179.079 92.826h5.348a5.348 5.348 0 0 1 5.348 5.348v38.774a8.022 8.022 0 1 1-16.044 0V98.174a5.348 5.348 0 0 1 5.348-5.348z" fill="#FFF"/>
        <path d="M195.123 92.826h5.348a5.348 5.348 0 0 1 5.348 5.348v38.774a8.022 8.022 0 1 1-16.044 0V98.174a5.348 5.348 0 0 1 5.348-5.348z" fill="#FFF"/>
        <path d="M211.167 92.826h5.348a5.348 5.348 0 0 1 5.348 5.348v38.774a8.022 8.022 0 1 1-16.044 0V98.174a5.348 5.348 0 0 1 5.348-5.348z" fill="#FFF"/>
        <path d="M205.749 138.961a8.36 8.36 0 0 1-16.044 0 8.356 8.356 0 0 1-16.378-2.348V98.174a5.348 5.348 0 0 1 5.347-5.348h6.017a5.35 5.35 0 0 1 5.014 3.483 5.351 5.351 0 0 1 5.013-3.483h6.017a5.35 5.35 0 0 1 5.014 3.483 5.351 5.351 0 0 1 5.013-3.483h6.017a5.348 5.348 0 0 1 5.348 5.348v38.44a8.356 8.356 0 0 1-8.356 8.356 8.36 8.36 0 0 1-8.022-6.009zM178.674 93.83a4.346 4.346 0 0 0-4.345 4.345v38.44a7.353 7.353 0 1 0 14.707 0v-38.44c0-2.399-1.945-4.345-4.345-4.345h-6.017zm16.044 0a4.346 4.346 0 0 0-4.345 4.345v38.44a7.353 7.353 0 1 0 14.707 0v-38.44c0-2.399-1.945-4.345-4.345-4.345h-6.017zm16.044 0a4.346 4.346 0 0 0-4.345 4.345v38.44a7.353 7.353 0 1 0 14.707 0v-38.44c0-2.399-1.945-4.345-4.345-4.345h-6.017z" fill="#002D6F" fill-rule="nonzero"/>
        <path fill="#002D6F" fill-rule="nonzero" d="m175.096 94.055-15.71 8.356.472.886 15.71-8.356z"/>
        <path d="M130.825 218.587a4.01 4.01 0 0 1 5.48 1.468l19.052 33a4.011 4.011 0 1 1-6.948 4.01l-19.052-32.999a4.011 4.011 0 0 1 1.468-5.479zm0 143.14a3.343 3.343 0 0 1-1.224-4.565l19.721-34.157a3.343 3.343 0 0 1 5.79 3.342l-19.72 34.157a3.342 3.342 0 0 1-4.567 1.224zM260.06 218.666a3.677 3.677 0 0 1 1.346 5.022l-18.718 32.42a3.676 3.676 0 1 1-6.368-3.676l18.718-32.42a3.676 3.676 0 0 1 5.022-1.346zm-.045 142.24a4.01 4.01 0 0 1-5.479-1.469l-18.718-32.42a4.01 4.01 0 1 1 6.947-4.011l18.718 32.42a4.011 4.011 0 0 1-1.468 5.48z" fill="#FFF"/>
        <path d="M130.946 218.298a4.345 4.345 0 0 1 5.936 1.59l19.052 33a4.345 4.345 0 1 1-7.526 4.345l-19.052-33a4.345 4.345 0 0 1 1.59-5.935zm-.722 5.434 19.053 33a3.342 3.342 0 1 0 5.79-3.343l-19.053-33a3.342 3.342 0 1 0-5.79 3.343zm.722 138.04a4.345 4.345 0 0 1-1.59-5.935l19.052-33a4.345 4.345 0 1 1 7.526 4.346l-19.052 33a4.345 4.345 0 0 1-5.936 1.59zm.502-.868c1.599.923 3.643.376 4.566-1.223l19.052-33a3.342 3.342 0 1 0-5.79-3.342l-19.052 33a3.342 3.342 0 0 0 1.224 4.565zm129.356-142.606a4.346 4.346 0 0 1 1.59 5.935l-19.051 33a4.346 4.346 0 0 1-7.527-4.346l19.052-32.999a4.345 4.345 0 0 1 5.936-1.59zm-5.067 2.091-19.053 33a3.343 3.343 0 0 0 5.79 3.342l19.052-33a3.342 3.342 0 1 0-5.79-3.342zm5.067 141.383a4.345 4.345 0 0 1-5.936-1.59l-19.052-33a4.345 4.345 0 1 1 7.527-4.344l19.052 32.999a4.346 4.346 0 0 1-1.591 5.935zm-.502-.868a3.342 3.342 0 0 0 1.224-4.566l-19.052-33a3.342 3.342 0 1 0-5.79 3.343l19.053 33a3.342 3.342 0 0 0 4.565 1.223zM175.748 136.308a.502.502 0 0 1-.691-.726c4.657-4.425 9.001-4.425 12.762.04a.501.501 0 0 1-.767.646c-3.371-4.003-7.049-4.003-11.304.04zm16.378 0a.502.502 0 0 1-.69-.726c4.656-4.425 9-4.425 12.761.04a.501.501 0 0 1-.767.646c-3.371-4.003-7.048-4.003-11.304.04zm16.044 0a.502.502 0 0 1-.69-.726c4.656-4.425 9-4.425 12.761.04a.501.501 0 0 1-.767.646c-3.37-4.003-7.048-4.003-11.304.04z" fill="#002D6F" fill-rule="nonzero"/>
        <path stroke="#002D6F" stroke-width="1.5" stroke-linejoin="round" d="m214.843 416.048.3 44.455"/>
        <path d="m214.94.904 1.003.006-.264 43.453-1.003-.006.265-43.453zm14.11-.832c0-.277.224.334.5.334.277 0 .502.224.502.502l-.167 101.612c0 .277-.058.335-.334.335-.277 0-.669-.058-.669-.335L229.05.072zm15.71.836a.501.501 0 1 1 1.002 0l-.167 101.612a.502.502 0 0 1-1.003 0L244.759.908z" fill="#002D6F" fill-rule="nonzero"/>
    </g>
</svg>
