<svg viewBox="0 0 150 162" xmlns="http://www.w3.org/2000/svg" xmlns:xlink="http://www.w3.org/1999/xlink"><linearGradient id="a" x1="87.293183%" x2="9.331633%" y1="15.494164%" y2="93.159971%"><stop offset=".048" stop-color="#fff44f"/><stop offset=".111" stop-color="#ffe847"/><stop offset=".225" stop-color="#ffc830"/><stop offset=".368" stop-color="#ff980e"/><stop offset=".401" stop-color="#ff8b16"/><stop offset=".462" stop-color="#ff672a"/><stop offset=".534" stop-color="#ff3647"/><stop offset=".705" stop-color="#e31587"/></linearGradient><radialGradient id="b" cx="86.531485%" cy="-12.747499%" gradientTransform="matrix(.812693 0 0 1 .16208 0)" r="128.42867%"><stop offset=".129" stop-color="#ffbd4f"/><stop offset=".186" stop-color="#ffac31"/><stop offset=".247" stop-color="#ff9d17"/><stop offset=".283" stop-color="#ff980e"/><stop offset=".403" stop-color="#ff563b"/><stop offset=".467" stop-color="#ff3750"/><stop offset=".71" stop-color="#f5156c"/><stop offset=".782" stop-color="#eb0878"/><stop offset=".86" stop-color="#e50080"/></radialGradient><radialGradient id="c" cx="47.779103%" cy="39.704804%" gradientTransform="matrix(.812693 0 0 1 .089494 0)" r="128.42867%"><stop offset=".3" stop-color="#960e18"/><stop offset=".351" stop-color="#b11927" stop-opacity=".74"/><stop offset=".435" stop-color="#db293d" stop-opacity=".343"/><stop offset=".497" stop-color="#f5334b" stop-opacity=".094"/><stop offset=".53" stop-color="#ff3750" stop-opacity="0"/></radialGradient><radialGradient id="d" cx="51.455632%" cy="-28.519821%" gradientTransform="matrix(1 0 0 .588871 0 -.117253)" r="314.965291%"><stop offset=".132" stop-color="#fff44f"/><stop offset=".252" stop-color="#ffdc3e"/><stop offset=".506" stop-color="#ff9d12"/><stop offset=".526" stop-color="#ff980e"/></radialGradient><radialGradient id="e" cx="19.318578%" cy="110.06288%" gradientTransform="matrix(1 0 0 .91217 0 .096668)" r="111.740444%"><stop offset=".353" stop-color="#3a8ee6"/><stop offset=".472" stop-color="#5c79f0"/><stop offset=".669" stop-color="#9059ff"/><stop offset="1" stop-color="#c139e6"/></radialGradient><radialGradient id="f" cx="56.811316%" cy="36.046448%" gradientTransform="matrix(.97199563 -.21435898 .23499894 .88662525 -.068799 .162648)" r="59.254362%"><stop offset=".206" stop-color="#9059ff" stop-opacity="0"/><stop offset=".278" stop-color="#8c4ff3" stop-opacity=".064"/><stop offset=".747" stop-color="#7716a8" stop-opacity=".45"/><stop offset=".975" stop-color="#6e008b" stop-opacity=".6"/></radialGradient><radialGradient id="g" cx="208.497563%" cy="-99.419403%" gradientTransform="matrix(1 0 0 .996305 0 -.003674)" r="293.282475%"><stop offset="0" stop-color="#ffe226"/><stop offset=".121" stop-color="#ffdb27"/><stop offset=".295" stop-color="#ffc82a"/><stop offset=".502" stop-color="#ffa930"/><stop offset=".732" stop-color="#ff7e37"/><stop offset=".792" stop-color="#ff7139"/></radialGradient><radialGradient id="h" cx="79.696795%" cy="-40.924947%" gradientTransform="matrix(.839443 0 0 1 .127959 0)" r="193.848967%"><stop offset=".113" stop-color="#fff44f"/><stop offset=".456" stop-color="#ff980e"/><stop offset=".622" stop-color="#ff5634"/><stop offset=".716" stop-color="#ff3647"/><stop offset=".904" stop-color="#e31587"/></radialGradient><radialGradient id="i" cx="7.991329%" cy="-10.367639%" gradientTransform="matrix(.10494492 .47078292 -.99447804 .04968061 -.031577 -.136147)" r="348.796223%"><stop offset="0" stop-color="#fff44f"/><stop offset=".06" stop-color="#ffe847"/><stop offset=".168" stop-color="#ffc830"/><stop offset=".304" stop-color="#ff980e"/><stop offset=".356" stop-color="#ff8b16"/><stop offset=".455" stop-color="#ff672a"/><stop offset=".57" stop-color="#ff3647"/><stop offset=".737" stop-color="#e31587"/></radialGradient><radialGradient id="j" cx="17.542808%" cy="-42.106187%" gradientTransform="matrix(.981484 0 0 1 .003248 0)" r="238.662147%"><stop offset=".137" stop-color="#fff44f"/><stop offset=".48" stop-color="#ff980e"/><stop offset=".592" stop-color="#ff5634"/><stop offset=".655" stop-color="#ff3647"/><stop offset=".904" stop-color="#e31587"/></radialGradient><radialGradient id="k" cx="156.177083%" cy="-45.094409%" gradientTransform="matrix(.895562 0 0 1 .163108 0)" r="312.846856%"><stop offset=".094" stop-color="#fff44f"/><stop offset=".231" stop-color="#ffe141"/><stop offset=".509" stop-color="#ffaf1e"/><stop offset=".626" stop-color="#ff980e"/></radialGradient><linearGradient id="l" x1="86.338394%" x2="20.025647%" y1="15.079805%" y2="83.568487%"><stop offset=".167" stop-color="#fff44f" stop-opacity=".8"/><stop offset=".266" stop-color="#fff44f" stop-opacity=".634"/><stop offset=".489" stop-color="#fff44f" stop-opacity=".217"/><stop offset=".6" stop-color="#fff44f" stop-opacity="0"/></linearGradient><linearGradient id="m" x1=".011547%" x2="100%" y1="39.555279%" y2="39.555279%"><stop offset="0" stop-color="#d93025"/><stop offset="1" stop-color="#ea4335"/></linearGradient><linearGradient id="n" x1="55.969132%" x2="12.231197%" y1="76.301563%" y2="18.907987%"><stop offset="0" stop-color="#1e8e3e"/><stop offset="1" stop-color="#34a853"/></linearGradient><linearGradient id="o" x1="21.300368%" x2="59.780582%" y1="100%" y2=".173333%"><stop offset="0" stop-color="#fcc934"/><stop offset="1" stop-color="#fbbc04"/></linearGradient><g fill="none"><g><path d="m96.3749643 34.6771041c-2.1750756-5.2336141-6.5872241-10.8844192-10.0422878-12.6707194 2.4637795 4.7710842 4.1739008 9.8949127 5.0695794 15.189364l.0090413.0839548c-5.6598464-14.1044094-15.2539446-19.8004209-23.094033-32.18698553-.396525-.6264321-.7930501-1.25415581-1.1792423-1.91675307-.2208657-.37844248-.3978166-.7194282-.5515185-1.03329006-.3251105-.62959171-.575655-1.29496498-.7465521-1.98262531.0004745-.06569473-.04844-.1212794-.1136619-.12916126-.0308595-.00846351-.0634283-.00846351-.0942877 0-.0064581 0-.016791.01162451-.0245407.01420774-.0077496.00258322-.0245406.01420774-.0361651.01937419l.0193742-.03358193c-12.5738485 7.36219171-16.8426281 20.98870443-17.2301119 27.80841883-5.0231401.3443805-9.8258546 2.1947984-13.7815062 5.3098194-.4125423-.3494317-.8437116-.676258-1.2916126-.9790424-1.1405069-3.9924695-1.1891251-8.2177907-.1407857-12.235446-4.6176949 2.2368127-8.7207485 5.4078939-12.0494538 9.3125267h-.023249c-1.983917-2.5147697-1.8444228-10.8069224-1.7307609-12.5389749-.5869117.2358759-1.1471591.5333178-1.6713467.8873379-1.7513894 1.2499445-3.3886593 2.652516-4.8926284 4.1912828-1.7138596 1.7376146-3.27916851 3.6157261-4.67951241 5.6146399v.0077496-.0090412c-3.21801047 4.5614831-5.50072393 9.7151477-6.71638542 15.1635317l-.06716385.3306528c-.09428772.4404399-.43398183 2.6465141-.49210439 3.1257024 0 .0374568-.00774968.0723303-.01162452.1097871-.43818177 2.2775581-.70970978 4.5840353-.81242431 6.901086v.2583225c.04586155 25.9680693 19.9398119 47.5901036 45.8142408 49.7938856 25.874429 2.203781 49.1384901-15.7423904 53.5753473-41.3286567.0839548-.6458063.1524103-1.2851545.2273238-1.9374189 1.0311061-8.5221846-.0851189-17.1669328-3.247114-25.1476969zm-57.696334 39.1875257c.2337819.1123703.4533561.2337819.693596.3409858l.0348735.0219574c-.2428231-.1162452-.4856463-.2372262-.7284695-.3629432z" fill="url(#a)"/><path d="m96.3749643 34.6771041c-2.1750756-5.2336141-6.5872241-10.8844192-10.0422878-12.6707194 2.4637795 4.7710842 4.1739008 9.8949127 5.0695794 15.189364v.0477896l.0090413.0529561c3.8590997 11.0420729 3.3009864 23.1484095-1.5576848 33.7885852-5.7373431 12.3103595-19.6195951 24.9281228-41.3574348 24.3081487-23.4815168-.6651805-44.17315029-18.0954922-48.03507191-40.9182865-.70392886-3.5997243 0-5.4247729.35390185-8.3502754-.48273951 2.2724337-.75213482 4.5849956-.80467464 6.9075441v.2583225c.04586155 25.9680693 19.9398119 47.590104 45.8142408 49.793885 25.874429 2.203782 49.1384901-15.7423898 53.5753473-41.3286561.0839548-.6458063.1524103-1.2851545.2273238-1.9374189 1.0311062-8.5221846-.0851189-17.1669327-3.247114-25.1476969z" fill="url(#b)"/><path d="m96.3749643 34.6771041c-2.1750756-5.2336141-6.5872241-10.8844192-10.0422878-12.6707194 2.4637795 4.7710842 4.1739008 9.8949127 5.0695794 15.189364v.0477896l.0090413.0529561c3.8590997 11.0420729 3.3009864 23.1484095-1.5576848 33.7885852-5.7373431 12.3103595-19.6195951 24.9281228-41.3574348 24.3081487-23.4815168-.6651805-44.17315029-18.0954922-48.03507191-40.9182865-.70392886-3.5997243 0-5.4247729.35390185-8.3502754-.48273951 2.2724337-.75213482 4.5849956-.80467464 6.9075441v.2583225c.04586155 25.9680693 19.9398119 47.590104 45.8142408 49.793885 25.874429 2.203782 49.1384901-15.7423898 53.5753473-41.3286561.0839548-.6458063.1524103-1.2851545.2273238-1.9374189 1.0311062-8.5221846-.0851189-17.1669327-3.247114-25.1476969z" fill="url(#c)"/><path d="m72.0409833 40.5539414c.1084955.0762051.2092412.1524103.3112786.2286154-1.2574452-2.2297176-2.8227641-4.2711544-4.6498053-6.0641211-15.5639316-15.5639316-4.0776209-33.73692057-2.1414936-34.66688163l.0193742-.02841547c-12.5738485 7.3621917-16.8426281 20.9887044-17.2301119 27.8084189.5838089-.04004 1.1624514-.0891213 1.7591764-.0891213 9.081331.0175681 17.4545312 4.9078523 21.9315816 12.8089219z" fill="url(#d)"/><path d="m50.1352339 43.6667277c-.0826632 1.2451145-4.4818956 5.5397264-6.0202062 5.5397264-14.2335706 0-16.5455572 8.611181-16.5455572 8.611181.630307 7.2511131 5.6830954 13.2261129 11.7911313 16.3776476.2789883.1446606.5618515.2751134.8447146.4029831.4899517.2169909.9799034.4176214 1.4698551.6018914 2.096272.7417911 4.2918309 1.1654038 6.5136023 1.2567391 24.953955 1.170201 29.7845861-29.8362506 11.7782151-38.8387903 4.247533-.5526737 8.5489613.4917287 12.0701196 2.9306689-4.4770505-7.9010696-12.8502506-12.7913538-21.9315817-12.8089219-.5941417 0-1.1753674.0490812-1.7591763.0891212-5.0231402.3443805-9.8258546 2.1947984-13.7815062 5.3098193.763343.6458063 1.6248486 1.5086035 3.4395643 3.297487 3.3969411 3.3465682 12.1088679 6.8132563 12.1282421 7.2201143z" fill="url(#e)"/><path d="m50.1352339 43.6667277c-.0826632 1.2451145-4.4818956 5.5397264-6.0202062 5.5397264-14.2335706 0-16.5455572 8.611181-16.5455572 8.611181.630307 7.2511131 5.6830954 13.2261129 11.7911313 16.3776476.2789883.1446606.5618515.2751134.8447146.4029831.4899517.2169909.9799034.4176214 1.4698551.6018914 2.096272.7417911 4.2918309 1.1654038 6.5136023 1.2567391 24.953955 1.170201 29.7845861-29.8362506 11.7782151-38.8387903 4.247533-.5526737 8.5489613.4917287 12.0701196 2.9306689-4.4770505-7.9010696-12.8502506-12.7913538-21.9315817-12.8089219-.5941417 0-1.1753674.0490812-1.7591763.0891212-5.0231402.3443805-9.8258546 2.1947984-13.7815062 5.3098193.763343.6458063 1.6248486 1.5086035 3.4395643 3.297487 3.3969411 3.3465682 12.1088679 6.8132563 12.1282421 7.2201143z" fill="url(#f)"/><path d="m32.2334836 31.4868211c.4055663.2583225.740094.4830631 1.03329.6858462-1.1405069-3.9924695-1.1891251-8.2177907-.1407857-12.2354459-4.6176949 2.2368126-8.7207485 5.4078938-12.0494538 9.3125267.2441148-.0064581 7.5055607-.136911 11.1569495 2.237073z" fill="url(#g)"/><path d="m.4520644 54.477525c3.86321323 22.8227943 24.5535552 40.2595641 48.0350719 40.9182865 21.7378397.6148076 35.622675-12.0042473 41.3574348-24.3081487 4.8586713-10.6401756 5.4167845-22.7465123 1.5576848-33.7885851v-.0477897c0-.0374568-.0077497-.0594142 0-.0477897l.0090413.0839549c1.7759673 11.5948061-4.1215358 22.8227943-13.342358 30.4303924l-.0284155.0645806c-17.966331 14.6339705-35.1576944 8.8268804-38.6321323 6.4580629-.2428231-.1162451-.4856463-.2372262-.7284694-.3629431-10.4736865-5.0062904-14.8018802-14.5435577-13.8719192-22.7323815-5.0793239.0749584-9.7264533-2.8481624-11.8582951-7.4590626 5.5908661-3.4248377 12.5580947-3.7045047 18.4054793-.7388024 5.92757 2.6905816 12.6724651 2.9557417 18.7929631.7388024-.0193742-.406858-8.7313011-3.8748378-12.1282422-7.2201143-1.8147157-1.7888835-2.6762212-2.6503891-3.4395643-3.297487-.4125423-.3494316-.8437116-.6762579-1.2916126-.9790423-.2970709-.2027832-.6315985-.4223573-1.03329-.6858463-3.6513888-2.3739839-10.9128347-2.243531-11.1530747-2.237073h-.023249c-1.9839169-2.5147697-1.8444227-10.8069224-1.7307608-12.5389749-.5869118.2358759-1.1471591.5333178-1.6713467.8873378-1.7513895 1.2499446-3.3886593 2.6525161-4.8926285 4.1912829-1.7199978 1.7327282-3.29179129 3.6065238-4.69888655 5.6017237v.0077497-.0090413c-3.21801047 4.5614832-5.50072392 9.7151478-6.71638541 15.1635317-.02454064.1020374-1.80309117 7.8775451-.92608622 11.9099596z" fill="url(#h)"/><path d="m67.701165 34.7158525c1.8275272 1.7949472 3.392867 3.8385852 4.6498053 6.0705791.2751135.2079497.5321444.4146077.7504269.6148076 11.3493998 10.4620619 5.4028155 25.251026 4.9597923 26.2972322 9.2195306-7.5959736 15.1118672-18.8317115 13.342358-30.4303924-5.6624296-14.1173255-15.2668607-19.813337-23.0940329-32.19990166-.3965251-.62643211-.7930502-1.25415582-1.1792423-1.91675307-.2208658-.37844249-.3978167-.71942821-.5515186-1.03329007-.3251105-.62959171-.575655-1.29496497-.7465521-1.98262531.0004745-.06569473-.04844-.1212794-.1136619-.12916126-.0308594-.00846351-.0634282-.00846351-.0942877 0-.0064581 0-.016791.01162451-.0245406.01420774-.0077497.00258323-.0245407.01420774-.0361652.01937419-1.9361273.91833654-13.4198547 19.10295004 2.1440769 34.65396554z" fill="url(#i)"/><path d="m73.1001056 41.4064057c-.2182825-.2002-.4753134-.406858-.7504269-.6148076-.1020374-.0762052-.2027832-.1524103-.3112786-.2286154-3.5211583-2.4389403-7.8225866-3.4833427-12.0701196-2.930669 18.0050794 9.0025397 13.1744483 40.0012416-11.7782151 38.8387903-2.2217713-.0913353-4.4173303-.514948-6.5136023-1.256739-.4899517-.183409-.9799034-.3840395-1.4698551-.6018915-.2828631-.1291612-.5657263-.2583225-.8447146-.4029831l.0348735.0219574c3.4796043 2.3752755 20.6658013 8.1784909 38.6321323-6.4580629l.0284155-.0645806c.4481896-1.0462062 6.3947739-15.8351703-4.9597923-26.2972322z" fill="url(#j)"/><path d="m27.5707621 57.8098855s2.310695-8.6111811 16.5455572-8.6111811c1.5383106 0 5.9414179-4.2946119 6.0202062-5.5397264-6.1204979 2.2169393-12.865393 1.9517792-18.792963-.7388024-5.8473846-2.9657023-12.8146132-2.6860353-18.4054793.7388024 2.1318418 4.6109003 6.7789712 7.5340211 11.8582951 7.4590627-.9273778 8.1849489 3.3995243 17.7209246 13.8719191 22.7323814.2337819.1123703.4533561.2337819.693596.3409857-6.1132023-3.1579927-11.1608243-9.1304093-11.7911313-16.3776475z" fill="url(#k)"/><path d="m96.3749643 34.6771041c-2.1750756-5.2336141-6.5872241-10.8844192-10.0422878-12.6707194 2.4637795 4.7710842 4.1739008 9.8949127 5.0695794 15.189364l.0090413.0839548c-5.6598464-14.1044094-15.2539446-19.8004209-23.094033-32.18698553-.396525-.6264321-.7930501-1.25415581-1.1792423-1.91675307-.2208657-.37844248-.3978166-.7194282-.5515185-1.03329006-.3251105-.62959171-.575655-1.29496498-.7465521-1.98262531.0004745-.06569473-.04844-.1212794-.1136619-.12916126-.0308595-.00846351-.0634283-.00846351-.0942877 0-.0064581 0-.016791.01162451-.0245407.01420774-.0077496.00258322-.0245406.01420774-.0361651.01937419l.0193742-.03358193c-12.5738485 7.36219171-16.8426281 20.98870443-17.2301119 27.80841883.5838089-.04004 1.1624514-.0891212 1.7591764-.0891212 9.081331.0175681 17.4545312 4.9078523 21.9315816 12.8089219-3.5211583-2.4389402-7.8225865-3.4833426-12.0701196-2.9306689 18.0050794 9.0025397 13.1744484 40.0012416-11.7782151 38.8387903-2.2217713-.0913353-4.4173303-.514948-6.5136022-1.2567391-.4899517-.1834089-.9799034-.3840394-1.4698552-.6018914-.2828631-.1291613-.5657263-.2583225-.8447146-.4029831l.0348736.0219574c-.2428232-.1162452-.4856464-.2372262-.7284695-.3629432.2337818.1123703.453356.2337819.6935959.3409858-6.1132023-3.1592844-11.1608243-9.131701-11.7911312-16.3776476 0 0 2.3106949-8.611181 16.5455571-8.611181 1.5383106 0 5.9414179-4.2946119 6.0202063-5.5397264-.0193742-.406858-8.7313011-3.8748377-12.1282422-7.2201143-1.8147156-1.7888835-2.6762212-2.650389-3.4395643-3.2974869-.4125423-.3494317-.8437116-.676258-1.2916125-.9790424-1.140507-3.9924695-1.1891252-8.2177907-.1407858-12.235446-4.6176949 2.2368127-8.7207485 5.4078939-12.0494538 9.3125267h-.023249c-1.9839169-2.5147696-1.8444228-10.8069224-1.7307609-12.5389749-.5869117.2358759-1.147159.5333178-1.6713466.8873379-1.7513895 1.2499445-3.3886593 2.652516-4.8926285 4.1912828-1.7138595 1.7376146-3.27916849 3.6157261-4.67951238 5.6146399v.0077496-.0090412c-3.21801047 4.5614831-5.50072393 9.7151477-6.71638542 15.1635317l-.06716386.3306528c-.09428771.4404399-.51664503 2.6775129-.57735082 3.1579927-.38632029 2.3092288-.63303553 4.6396526-.73880239 6.9785828v.2583225c.04586155 25.9680693 19.93981187 47.5901037 45.81424087 49.7938857 25.8744289 2.203781 49.13849-15.7423905 53.5753472-41.3286568.0839548-.6458063.1524103-1.2851545.2273238-1.9374189 1.0311059-8.5221846-.0851189-17.1669328-3.247114-25.1476969z" fill="url(#l)"/></g><g transform="translate(50 61)"><path d="m93.3004294 25.0009351c-8.9330921-15.47075406-25.4408183-25.0009351-43.3054304-25.0009351s-34.3723383 9.53018104-43.30543033 25.0009351l3.00037623 54.0067723z" fill="url(#m)"/><path d="m28.3522851 62.5056381-21.65271518-37.504703c-8.93264643 15.4717975-8.93276749 34.5338096-.00031759 50.0057206 8.93244987 15.4719109 25.44045507 25.0036853 43.30574797 25.0036853l49.0061452-50.0062706z" fill="url(#n)"/><path d="m71.6577154 62.5056381-21.6527151 37.5047029c17.8635062-.004026 34.3682379-9.536758 43.2982476-25.0080152 8.9300101-15.4712572 8.9289351-34.5311403-.0028185-50.0013907h-43.2954291z" fill="url(#o)"/><path d="m50.0050003 75.0072057c8.9327599 0 17.1869706-4.7655705 21.6533506-12.5015675 4.46638-7.7359971 4.46638-17.2671385 0-25.0031355-4.46638-7.7359971-12.7205907-12.5015676-21.6533506-12.5015676-13.8088504 0-25.0031353 11.194285-25.0031353 25.0031353 0 13.8088504 11.1942849 25.0031353 25.0031353 25.0031353z" fill="#fff"/><path d="m50.0050003 69.8065536c7.0747459 0 13.6120807-3.7743319 17.1494537-9.9012415 3.537373-6.1269097 3.537373-13.6755737 0-19.8024833-3.537373-6.1269097-10.0747078-9.9012415-17.1494537-9.9012415-10.9366094 0-19.8024829 8.8658738-19.8024829 19.8024831 0 10.9366094 8.8658735 19.8024832 19.8024829 19.8024832z" fill="#1a73e8"/></g></g></svg>