<svg xmlns="http://www.w3.org/2000/svg" width="114" height="20">
  <g fill-rule="nonzero" fill="none">
    <path
      fill="#FF4C4C"
      d="M6.084 1.051c-.536 3.287 1.041 5.81 4.733 7.567 3.61 1.72 5.2 4.448 4.772 8.188l-.033.257h-4.938c.161-1.234-.021-2.107-.547-2.619-1.95-1.9-3.87-1.942-5.836-4.047C1.722 7.704.673 4.694 1.088 1.364l.043-.313h4.953z"
    />
    <path
      fill="#2E53C2"
      stroke="#FF4C4C"
      stroke-width="1.5"
      d="M10.09 9.746c.032.757-.016 1.372-.154 1.841-.107.367-.265.64-.51.784-.244.144-.558.15-.93.067-.477-.107-1.037-.362-1.683-.756-.997-.587-1.75-1.149-2.262-1.697-2.356-2.524-3.364-5.341-3.006-8.46h3.949c-.119 1.195.054 2.3.513 3.313.523 1.156 1.419 2.196 2.703 3.113.22.164 1.35 1.038 1.38 1.795z"
    />
    <path fill="#FFB500" d="M15.892.794v5.982H9.911V.794z" />
    <path
      fill="#000"
      d="M71.212 4.088c3.087 0 5.298 2.356 5.298 5.672 0 3.358-2.107 5.714-5.172 5.714-2.243 0-3.328-1.318-3.698-1.995l-.015-.027H67.5V20h-1.647V4.359h1.585v1.71h.125c.27-.396 1.293-1.981 3.65-1.981zm-44.377 0c1.877 0 3.692 1.084 3.942 3.044l-1.44.418c-.145-1.273-1.188-2.044-2.606-2.044-1.356 0-2.231.667-2.231 1.606 0 2.752 6.506.458 6.506 4.942 0 2.044-1.689 3.42-4.212 3.42-2.44 0-3.963-1.334-4.213-3.274l1.501-.375c.126 1.46 1.147 2.21 2.795 2.21 1.627 0 2.523-.792 2.523-1.897 0-3.045-6.485-.73-6.485-5.026 0-1.836 1.647-3.024 3.92-3.024zm18.798 0c3.274 0 5.652 2.44 5.652 5.693 0 3.253-2.42 5.693-5.673 5.693s-5.652-2.398-5.652-5.693c0-3.274 2.44-5.693 5.673-5.693zm43.48 0c3.242 0 5.114 2.248 5.151 5.45v.702h-8.717c.021 2.419 1.44 3.775 3.692 3.775 1.499 0 2.877-.85 3.257-2.31l.017-.068 1.606.376c-.605 2.022-2.399 3.461-4.901 3.461-3.295 0-5.36-2.314-5.36-5.651 0-3.462 2.377-5.735 5.255-5.735zm10.473 0c1.877 0 3.692 1.084 3.942 3.044l-1.44.418c-.145-1.273-1.188-2.044-2.606-2.044-1.356 0-2.231.667-2.231 1.606 0 2.752 6.506.458 6.506 4.942 0 2.044-1.689 3.42-4.212 3.42-2.44 0-3.963-1.334-4.213-3.274l1.501-.375c.126 1.46 1.147 2.21 2.795 2.21 1.627 0 2.523-.792 2.523-1.897 0-1.362-1.297-1.652-2.73-1.94l-.124-.025-.194-.04-.055-.01-.11-.023-.11-.023-.165-.036-.11-.025c-1.494-.342-2.887-.913-2.887-2.904 0-1.836 1.647-3.024 3.92-3.024zm9.806 0c1.877 0 3.691 1.084 3.941 3.044l-1.439.418c-.145-1.273-1.188-2.044-2.606-2.044-1.356 0-2.232.667-2.232 1.606 0 2.752 6.507.458 6.507 4.942 0 2.044-1.69 3.42-4.213 3.42-2.44 0-3.962-1.334-4.213-3.274l1.502-.375c.125 1.46 1.147 2.21 2.795 2.21 1.626 0 2.523-.792 2.523-1.897 0-3.045-6.486-.73-6.486-5.026 0-1.836 1.648-3.024 3.92-3.024zM35.66 1.21v3.149h3.336v1.397H35.66v6.34c0 1.168.48 1.668 1.626 1.668h1.564v1.44h-1.543c-1.981 0-3.295-.897-3.295-3.087V5.756H31.97V4.359h2.148v-3.15h1.544zM58.4 4.088v1.647h-.98c-1.981 0-2.795 1.606-2.795 3.67v5.798h-1.647V4.36h1.626v1.814h.126c.312-.918 1.376-2.085 2.961-2.085h.709zm4.55.27v10.845h-1.647V5.756h-2.044V4.359h3.691zm20.675-.27v1.647h-.98c-1.982 0-2.795 1.606-2.795 3.67v5.798h-1.647V4.36h1.626v1.814h.125c.313-.918 1.377-2.085 2.962-2.085h.709zm-41.84 4.665c-.631 2.357.507 4.475 2.743 5.074 2.256.605 4.306-.681 4.932-3.018.62-2.316-.506-4.475-2.763-5.08-2.256-.604-4.297.727-4.912 3.024zm25.86.366c-.464 2.63.91 4.439 2.923 4.794 2.095.37 3.916-1.067 4.347-3.512.441-2.505-.878-4.39-2.932-4.752-2.218-.39-3.944 1.232-4.339 3.47zm18.227-.594-.011.07 6.96.608c.092-2.253-1.371-3.47-3.158-3.626-1.746-.152-3.46.966-3.791 2.948zM62.116 0c.709 0 1.21.521 1.21 1.189 0 .688-.501 1.21-1.21 1.21-.688 0-1.189-.522-1.189-1.21 0-.668.5-1.189 1.189-1.189z"
    />
  </g>
</svg>
