<svg xmlns="http://www.w3.org/2000/svg" width="26" height="29">
  <g fill="none" fill-rule="evenodd">
    <path
      fill="#FF4C4C"
      d="M.873 1.673h8.145c-.51 2.597-.082 4.984 1.285 7.163 3.372 5.376 9.077 4.93 12.432 10.01 1.748 2.639 2.368 5.692 1.861 9.16h-8.122c.127-2.054-.08-3.375-.623-3.965-3.2-3.477-6.664-3.134-10.526-7.714C1.523 11.818.039 6.933.873 1.673z"
    />
    <path
      fill="#2E53C2"
      d="M2.198 3.161h5.093c-.053 2.641.557 4.849 1.83 6.622 2.398 3.343 4.908 4.123 5.765 6.182.088 2.61-.34 4.086-1.521 3.76-.28 0-3.662-.97-6.94-4.485-3.333-3.577-4.742-7.603-4.227-12.079z"
    />
    <path fill="#FFB500" fill-rule="nonzero" d="M25.064 1.25v9.837h-9.837V1.25z" />
  </g>
</svg>
