<svg viewBox="0 0 64 64" version="1.1" xmlns="http://www.w3.org/2000/svg" xmlns:xlink="http://www.w3.org/1999/xlink">
    <title>icons/shared/logos/instagram</title>
    <defs>
        <radialGradient cx="26.5626266%" cy="107.702106%" fx="26.5626266%" fy="107.702106%" r="99.107386%" id="radialGradient-1">
            <stop stop-color="#FFDD55" offset="0%"></stop>
            <stop stop-color="#FFDD55" offset="10%"></stop>
            <stop stop-color="#FF543E" offset="50%"></stop>
            <stop stop-color="#C837AB" offset="100%"></stop>
        </radialGradient>
        <radialGradient cx="-16.7505274%" cy="7.20383154%" fx="-16.7505274%" fy="7.20383154%" r="44.3014085%" id="radialGradient-2">
            <stop stop-color="#3771C8" offset="0%"></stop>
            <stop stop-color="#3771C8" offset="12.8%"></stop>
            <stop stop-color="#6600FF" stop-opacity="0" offset="100%"></stop>
        </radialGradient>
        <path d="M29.6417883,0 L42.4255376,0 L46.7288513,0.0192498229 L46.7288513,0.0192498229 L48.5098627,0.0443248216 L48.5098627,0.0443248216 L49.4999505,0.0723366549 L49.4999505,0.0723366549 L50.2368781,0.108892401 L50.2368781,0.108892401 L50.8775351,0.162418936 L50.8775351,0.162418936 L51.1576502,0.194692771 L51.8679678,0.293443566 L51.8679678,0.293443566 C54.9534205,0.738532466 57.5426804,1.96941991 59.6598679,3.99201416 C60.8462018,5.13378535 61.6633447,6.25044644 62.3992655,7.7457285 C63.2433955,9.46491624 63.6833111,11.0968771 63.9004074,13.4256269 L63.9423318,13.9410215 L63.9423318,13.9410215 L63.9624704,15.2001599 L63.9624704,15.2001599 L63.9846205,19.3176819 L63.9846205,19.3176819 L64.0008647,29.1527643 L64.0008647,29.1527643 L63.978663,46.4117964 L63.978663,46.4117964 L63.9475847,49.9152706 L63.9475847,49.9152706 L63.9400228,50.1030272 L63.9400228,50.1030272 C63.7406597,52.6322547 63.3000917,54.3751913 62.4312621,56.1673635 C60.703448,59.7320135 57.528405,62.3316478 53.6937406,63.3212813 C52.5638622,63.6133093 51.5217243,63.7795503 50.0088949,63.8862902 L49.2752106,63.9315713 L49.2752106,63.9315713 L48.6373694,63.9588236 L48.6373694,63.9588236 L43.9542662,63.9888213 L43.9542662,63.9888213 L35.5536031,64 L35.5536031,64 L18.8370793,63.9767381 L18.8370793,63.9767381 L15.1557819,63.9466402 L15.1557819,63.9466402 L14.9877512,63.9416485 L14.9877512,63.9416485 C13.1171832,63.8530247 11.6601092,63.6659298 10.3408665,63.3262048 C6.53081492,62.3414949 3.29670135,59.7024722 1.60334507,56.1870577 C0.766512032,54.4526005 0.346804103,52.8586772 0.116144104,50.4388732 L0.0744647418,49.9662112 L0.0744647418,49.9662112 L0.0491676765,49.327133 L0.0491676765,49.327133 L0.00902183537,44.2999097 L0.00902183537,44.2999097 L0.000864667156,39.2047668 L0.000864667156,39.2047668 L0.000864667156,20.4582054 L0.0190288574,17.115629 L0.0190288574,17.115629 L0.0589811275,14.8392238 L0.0589811275,14.8392238 L0.0832833989,14.1963546 L0.0832833989,14.1963546 L0.112740197,13.6795174 L0.112740197,13.6795174 L0.180169297,12.9498268 L0.180169297,12.9498268 L0.290993963,12.1395043 L0.290993963,12.1395043 C0.736484494,9.05637745 1.96712132,6.46265143 3.99767208,4.35438742 C5.11262904,3.19833793 6.24235365,2.37364335 7.67481491,1.6621904 C9.43030467,0.787986788 11.0496799,0.354269161 13.5339921,0.116737855 L14.1060588,0.0684713094 L14.1060588,0.0684713094 L15.4467043,0.0353368485 L15.4467043,0.0353368485 L19.9921434,0.00918104578 L19.9921434,0.00918104578 L22.7702595,0.00414619106 L22.7702595,0.00414619106 L29.6417883,0 L29.6417883,0 Z M38.0919265,8.39492317 L35.7932341,8.37591444 L35.7932341,8.37591444 L28.0203262,8.37665574 L28.0203262,8.37665574 L25.6190049,8.39911171 L25.6190049,8.39911171 L24.0753149,8.43726217 L24.0753149,8.43726217 L22.2519542,8.51281756 L22.2519542,8.51281756 C19.7365326,8.62802862 18.0195481,9.0263438 16.5171866,9.61076916 C14.9631384,10.2143964 13.6448803,11.0218585 12.3315447,12.335954 C11.0172245,13.649557 10.2099268,14.9680837 9.60445346,16.521956 C9.01867033,18.0251157 8.619944,19.7429422 8.50672541,22.2578915 L8.44353291,23.7588005 L8.44353291,23.7588005 L8.41424644,24.6771733 L8.41424644,24.6771733 L8.39112169,25.8090553 L8.39112169,25.8090553 L8.36669862,29.4399385 L8.36669862,29.4399385 L8.37076637,35.8915114 L8.37076637,35.8915114 L8.39412044,38.4026345 L8.39412044,38.4026345 L8.44037553,40.1636142 L8.44037553,40.1636142 L8.50721766,41.7453015 L8.50721766,41.7453015 C8.62289753,44.2612354 9.0211316,45.9785696 9.60494571,47.4812369 C10.2089423,49.0356016 11.01624,50.3541282 12.3300679,51.6677313 C13.6429113,52.9823191 14.9611694,53.7917507 16.5142331,54.3953779 C17.9291469,54.9454253 19.5337407,55.3306138 21.8143335,55.4700791 L23.7585053,55.5576897 L23.7585053,55.5576897 L25.2417981,55.6001751 L25.2417981,55.6001751 L27.4496417,55.6264378 L27.4496417,55.6264378 L30.4708623,55.6354665 L30.4708623,55.6354665 L35.9659238,55.6294913 L35.9659238,55.6294913 L38.3665432,55.6070353 L38.3665432,55.6070353 L39.9095195,55.5688849 L39.9095195,55.5688849 L41.7324429,55.4933295 L41.7324429,55.4933295 C44.2478646,55.3781184 45.9668181,54.9798033 47.4701641,54.3953779 C49.02372,53.7917507 50.3400091,52.9823191 51.6528525,51.6677313 C52.9671726,50.3541282 53.7744704,49.0356016 54.3799437,47.4817293 C54.9608043,45.9785696 55.3595306,44.260743 55.4776718,41.7457938 L55.5674135,39.4410436 L55.5674135,39.4410436 L55.5996008,37.7624688 L55.5996008,37.7624688 L55.6186894,34.306902 L55.6186894,34.306902 L55.6149069,28.3322158 L55.6149069,28.3322158 L55.5874484,25.435419 L55.5874484,25.435419 L55.547127,23.92452 L55.547127,23.92452 L55.4776718,22.2583838 L55.4776718,22.2583838 C55.3595306,19.7424499 54.9608043,18.0251157 54.3799437,16.5224483 C53.7744704,14.9680837 52.9671726,13.649557 51.6528525,12.335954 C50.3385324,11.0213662 49.0242122,10.213904 47.4686873,9.61076916 C45.9623878,9.0263438 44.2444188,8.62802862 41.7289971,8.51281756 L40.5551635,8.46148062 L40.5551635,8.46148062 L39.2719595,8.4182702 L39.2719595,8.4182702 L38.0919265,8.39492317 L38.0919265,8.39492317 Z M29.875011,12.6229969 L29.875011,12.6289052 L35.6501011,12.6336609 L35.6501011,12.6336609 L38.4038592,12.6577084 L38.4038592,12.6577084 L39.8067871,12.6930464 L39.8067871,12.6930464 L41.5424326,12.7647951 L41.5424326,12.7647951 C43.0398715,12.8332817 44.0922383,13.0199236 44.8741925,13.2310183 L45.2165296,13.3298417 L45.2165296,13.3298417 L45.5242809,13.4300905 L45.5242809,13.4300905 L45.8012623,13.5297174 C45.8450737,13.5461563 45.887762,13.5624841 45.9294068,13.5786579 C47.0320574,14.0070067 47.8181882,14.5190559 48.6446838,15.3462123 C49.4716718,16.1733687 49.9836167,16.9611366 50.4128628,18.0640118 L50.5114044,18.3268259 L50.5114044,18.3268259 L50.6116117,18.618561 C50.6283375,18.6698053 50.6450471,18.7224135 50.6616976,18.7764648 L50.7605492,19.1187266 C50.9554644,19.8404279 51.1295395,20.7928172 51.2087708,22.1130843 L51.2700471,23.4380612 L51.2700471,23.4380612 L51.3273456,25.2215112 L51.3273456,25.2215112 L51.3547411,27.412474 L51.3547411,27.412474 L51.363817,30.5036279 L51.363817,30.5036279 L51.3578341,36.0161102 L51.3578341,36.0161102 L51.3256687,38.8503187 L51.3256687,38.8503187 L51.2923138,39.9880054 L51.2923138,39.9880054 L51.2265599,41.5444206 L51.2265599,41.5444206 C51.1738887,42.6965313 51.0513172,43.585232 50.9014872,44.2899151 L50.8086593,44.6912779 C50.7927565,44.7547031 50.7766664,44.8164469 50.7604317,44.8765886 L50.6616284,45.2188504 L50.6616284,45.2188504 L50.5614,45.5264751 C50.5446903,45.5750711 50.5280064,45.6223827 50.5113911,45.6684893 L50.4128628,45.9313035 L50.4128628,45.9313035 C49.9846012,47.0341786 49.4716718,47.8194848 48.6446838,48.6461488 C47.8176959,49.4733052 47.0325496,49.9853544 45.9294068,50.4137032 L45.6666185,50.5126242 L45.6666185,50.5126242 L45.374868,50.6130636 C45.3236184,50.6298175 45.2710037,50.6465502 45.216945,50.6632195 L44.8746293,50.7621368 C44.1528061,50.957099 43.2002357,51.1307738 41.8801812,51.2102059 L39.9039586,51.2967734 L39.9039586,51.2967734 L38.6082734,51.3322387 L38.6082734,51.3322387 L36.7105559,51.3554087 L36.7105559,51.3554087 L33.4890771,51.3653433 L33.4890771,51.3653433 L27.9750162,51.3593592 L27.9750162,51.3593592 L25.1404984,51.3271873 L25.1404984,51.3271873 L24.0029613,51.2938256 L24.0029613,51.2938256 L22.4468871,51.2280583 L22.4468871,51.2280583 C20.9494482,51.1589317 19.8970814,50.9720657 19.114992,50.7608927 L18.7725824,50.6620424 L18.7725824,50.6620424 L18.4647365,50.5617816 C18.416097,50.5450673 18.3687386,50.5283793 18.3225816,50.5117601 L18.0594207,50.4132108 L18.0594207,50.4132108 C16.9567701,49.984862 16.1691625,49.4728128 15.3421746,48.6456565 C14.5151866,47.8185001 14.0032417,47.0327016 13.5739956,45.9293341 L13.4754541,45.6665199 L13.4754541,45.6665199 L13.3752468,45.3747848 C13.3585209,45.3235405 13.3418114,45.2709324 13.3251608,45.216881 L13.2263092,44.8746192 C13.2100663,44.8144775 13.1939681,44.7527337 13.1780574,44.6893085 L13.0851867,44.2879457 C12.9502842,43.6537309 12.8375111,42.8704618 12.7780876,41.8802615 L12.7047447,40.251704 L12.7047447,40.251704 L12.6602685,38.7715389 L12.6602685,38.7715389 L12.6369312,37.0520509 L12.6369312,37.0520509 L12.6249701,33.4867015 L12.6249701,33.4867015 L12.6308774,27.9196764 L12.6308774,27.9196764 L12.6602685,25.2143872 L12.6602685,25.2143872 L12.6948177,24.0009058 L12.6948177,24.0009058 L12.7446537,22.7915739 L12.7446537,22.7915739 L12.7602985,22.4449864 C12.8182369,21.1776646 12.9607545,20.2290689 13.1310954,19.4933643 L13.2264268,19.1125479 L13.2264268,19.1125479 L13.3252301,18.7701411 L13.3252301,18.7701411 L13.4254584,18.4623272 L13.4254584,18.4623272 L13.525065,18.1852894 C13.5415006,18.141469 13.557825,18.098772 13.5739956,18.0571188 C14.0022572,16.9542436 14.5151866,16.1664757 15.3421746,15.3393193 C16.1691625,14.512163 16.9567701,14.0001138 18.0594207,13.5707802 L18.3224619,13.4718587 L18.3224619,13.4718587 L18.6143887,13.3714159 L18.6143887,13.3714159 L18.939011,13.2714752 C18.996051,13.2549727 19.0546121,13.2385754 19.1147736,13.2223255 L19.4955831,13.1269324 C20.1643911,12.972016 21.0091187,12.840271 22.1091419,12.7738554 L23.7004762,12.702151 L23.7004762,12.702151 L24.9798352,12.6618742 L24.9798352,12.6618742 L26.9157091,12.633815 L26.9157091,12.633815 L29.875011,12.6229969 L29.875011,12.6229969 Z M31.9941676,19.8665233 C25.2935962,19.8665233 19.8605808,25.3006452 19.8605808,32.0030735 C19.8605808,38.7055018 25.2935962,44.1371619 31.9946599,44.1371619 C38.6957235,44.1371619 44.1267699,38.7055018 44.1267699,32.0030735 C44.1267699,25.3006452 38.6952312,19.8665233 31.9941676,19.8665233 Z M31.9946599,24.1253939 C36.3442227,24.1253939 39.8707355,27.6521326 39.8707355,32.0030735 C39.8707355,36.3535221 36.3442227,39.8807532 31.9946599,39.8807532 C27.6446048,39.8807532 24.1185842,36.3535221 24.1185842,32.0030735 C24.1185842,27.6521326 27.6446048,24.1253939 31.9946599,24.1253939 Z M44.6072106,16.5519896 C43.0418405,16.5529743 41.7718233,17.8217731 41.7718233,19.3879543 C41.7718233,20.9536431 43.0418405,22.223919 44.6072106,22.223919 C46.1725806,22.223919 47.4425978,20.9536431 47.4425978,19.3879543 C47.4425978,17.8222655 46.1725806,16.5519896 44.6072106,16.5519896 Z" id="path-3"></path>
    </defs>
    <g id="icons/shared/logos/instagram" stroke="none" stroke-width="1" fill="none" fill-rule="evenodd">
        <g id="Shape" fill-rule="nonzero">
            <use fill="url(#radialGradient-1)" xlink:href="#path-3"></use>
            <use fill="url(#radialGradient-2)" xlink:href="#path-3"></use>
        </g>
    </g>
</svg>
