<svg viewBox="0 0 64 64" version="1.1" xmlns="http://www.w3.org/2000/svg" xmlns:xlink="http://www.w3.org/1999/xlink">
    <title>icons/shared/logos/soundcloud</title>
    <defs>
        <linearGradient x1="49.9953182%" y1="-0.0139647471%" x2="49.9953182%" y2="99.9862939%" id="linearGradient-1">
            <stop stop-color="#F79810" offset="0%"></stop>
            <stop stop-color="#F8310E" offset="100%"></stop>
        </linearGradient>
    </defs>
    <g id="icons/shared/logos/soundcloud" stroke="none" stroke-width="1" fill="none" fill-rule="evenodd">
        <path d="M0.724810161,34.7165376 C0.591268674,34.7165376 0.485276182,34.8194558 0.468009559,34.9661964 L0,38.5088506 L0.468009559,41.9904757 C0.485276182,42.1372162 0.591204005,42.2394255 0.724810161,42.2394255 C0.854148163,42.2394255 0.959493965,42.1379251 0.980123376,41.9917646 L0.980123376,41.9910557 L0.980123376,41.9917646 L1.53485407,38.5087861 L0.980123376,34.9654875 C0.960140655,34.8193913 0.853501473,34.7165376 0.724810161,34.7165376 Z M3.35677383,32.7809409 C3.3347217,32.6287225 3.22530175,32.5237421 3.09040221,32.5237421 C2.95479132,32.5237421 2.8425906,32.6321381 2.8240306,32.7809409 C2.8240306,32.7822943 2.19493056,38.5088506 2.19493056,38.5088506 L2.8240306,44.1098686 C2.84194391,44.2600892 2.95414463,44.3684852 3.09040221,44.3684852 C3.22459039,44.3684852 3.33407501,44.2628603 3.35606247,44.1112864 L4.07181897,38.5088506 L3.35677383,32.7809409 L3.35677383,32.7809409 Z M13.2707903,27.4975064 C13.0126963,27.4975064 12.7992886,27.7080472 12.7869369,27.9755572 L12.2858814,38.5136195 L12.7869369,45.3238779 C12.8,45.5899701 13.0126963,45.7998665 13.2707903,45.7998665 C13.5275263,45.7998665 13.7402226,45.5892612 13.7553551,45.3225246 L13.7553551,45.3245868 L14.3217909,38.5136195 L13.7553551,27.9755572 C13.7401579,27.7080472 13.5274616,27.4975064 13.2707903,27.4975064 Z M8.13962846,31.1601566 C7.94141797,31.1601566 7.7796808,31.3179173 7.76377222,31.5284581 L7.19940585,38.5108484 L7.76377222,45.2661999 C7.77890477,45.4753874 7.9413533,45.6331481 8.13962846,45.6331481 C8.33576954,45.6331481 8.49750671,45.4753874 8.51477333,45.2661999 L9.15622515,38.5108484 L8.51477333,31.5270403 C8.49750671,31.3179173 8.33576954,31.1601566 8.13962846,31.1601566 Z M18.4852459,45.7992221 C18.8052928,45.7992221 19.0654561,45.5419588 19.0785193,45.2127108 L19.5700037,38.517035 L19.0792306,24.4870365 C19.0661675,24.1577885 18.8059394,23.9005897 18.4859572,23.9005897 C18.1631296,23.9005897 17.9023195,24.1584974 17.8919078,24.4877454 L17.4562327,38.5163262 L17.8919078,45.214773 C17.9022548,45.5413144 18.1630649,45.7992221 18.4852459,45.7992221 L18.4852459,45.7992221 Z M29.1604812,45.8308 C29.6010064,45.8308 29.9644462,45.4693296 29.9726592,45.0248545 L29.9726592,45.0296234 L29.9726592,45.0248545 L30.3154695,38.5211595 L29.9725945,22.31757 C29.9650282,21.8738038 29.6009417,21.511689 29.1604165,21.511689 C28.7192446,21.511689 28.3551581,21.8731594 28.3482385,22.3182789 L28.0419661,38.5156817 C28.0419661,38.5259929 28.3482385,45.0289145 28.3482385,45.0289145 C28.3552228,45.4692652 28.7199559,45.8308 29.1604812,45.8308 L29.1604812,45.8308 Z M23.7822191,45.8054087 C24.1656416,45.8054087 24.47463,45.4987808 24.4849771,45.1078593 L24.4849771,45.1126282 L24.9020275,38.5184528 L24.4842657,24.3869539 C24.4739187,23.9959679 24.1649302,23.6901133 23.7815077,23.6901133 C23.3953691,23.6901133 23.0863806,23.9960323 23.078103,24.3869539 L22.7071616,38.5191617 L23.0788143,45.1119837 C23.087092,45.4987808 23.3960805,45.8054087 23.7822191,45.8054087 L23.7822191,45.8054087 Z M10.695218,45.7436707 C10.9230469,45.7436707 11.1075476,45.5618722 11.1247495,45.3225246 L11.7290813,38.5109128 L11.1247495,32.0312557 C11.1082589,31.7919081 10.9238229,31.6114629 10.695218,31.6114629 C10.4640264,31.6114629 10.2795257,31.7931969 10.2651045,32.0340268 L9.73300797,38.5109128 L10.2651045,45.3218801 C10.2802371,45.5618722 10.4639617,45.7436707 10.695218,45.7436707 Z M5.60473296,45.3705359 C5.77125564,45.3705359 5.90615518,45.2395198 5.92542654,45.0584302 L6.60406303,38.509495 L5.92607323,31.7136722 C5.90609051,31.5319381 5.77119097,31.4008576 5.60466829,31.4008576 C5.43601154,31.4008576 5.301112,31.5325826 5.28391005,31.7136722 L4.68649782,38.509495 L5.28391005,45.0570769 C5.30046531,45.2388109 5.43536485,45.3705359 5.60473296,45.3705359 L5.60473296,45.3705359 Z M26.4610677,24.1516663 C26.044664,24.1516663 25.710778,24.4816232 25.702565,24.9041226 L25.3639581,38.5198062 L25.702565,45.071448 C25.7108427,45.4884697 26.0439527,45.8184266 26.4610677,45.8184266 C26.8767601,45.8184266 27.2085767,45.4891786 27.2181477,45.0666791 L27.2181477,45.0721569 L27.5980781,38.5205151 L27.2181477,24.9027048 C27.2085121,24.4816232 26.8766954,24.1516663 26.4610677,24.1516663 Z M15.8683501,45.8129488 C16.1560625,45.8129488 16.393527,45.5790145 16.4073015,45.2806355 L16.9359059,38.5156173 L16.4073015,25.5673231 C16.3928157,25.2682352 16.1560625,25.0350743 15.8683501,25.0350743 C15.5779216,25.0350743 15.3411684,25.2689441 15.3287519,25.5673231 L14.8607424,38.5156173 L15.3294633,45.2834067 C15.3411037,45.5790145 15.5778569,45.8129488 15.8683501,45.8129488 Z M21.7710778,45.1743662 L21.7710778,45.1708862 L22.2253129,38.5177439 L21.7710778,24.0151724 C21.7600194,23.6551198 21.4750878,23.3725298 21.1233531,23.3725298 C20.769549,23.3725298 20.4846174,23.6544109 20.4750464,24.0151724 L20.0717058,38.517035 L20.475693,45.1736573 C20.4853287,45.5302943 20.770325,45.8121754 21.1234178,45.8121754 C21.4757991,45.8121754 21.7593727,45.5302943 21.7711425,45.1715951 L21.7711425,45.1743662 L21.7710778,45.1743662 Z M56.1286832,30.1580415 C55.0501336,30.1580415 54.0211852,30.3754779 53.0837433,30.7671084 C52.4573594,23.6969445 46.507876,18.1507689 39.250656,18.1507689 C37.4749099,18.1507689 35.7438501,18.4992214 34.2152043,19.0883748 C33.6212195,19.3174758 33.4629098,19.5534078 33.4574129,20.0109008 L33.4574129,44.908854 C33.4636212,45.3889671 33.8373433,45.7888465 34.307487,45.8362133 C34.3274697,45.8382755 55.9876401,45.8492311 56.1281012,45.8492311 C60.4752808,45.8492311 64,42.336737 64,38.0039908 C64,33.67118 60.4759275,30.1580415 56.1286832,30.1580415 Z M31.8481895,19.9889896 C31.3753298,19.9889896 30.9871864,20.3758511 30.9802669,20.8511308 L30.6251047,38.5232217 L30.9809782,44.9370164 C30.9871864,45.4055294 31.3753945,45.791682 31.8481895,45.791682 C32.3196265,45.791682 32.7078345,45.4055294 32.7146895,44.9301852 L32.7146895,44.9377253 L33.1008281,38.5232217 L32.7146895,20.8497775 C32.7078345,20.3758511 32.3196265,19.9889896 31.8481895,19.9889896 Z" id="Soundcloud" fill="url(#linearGradient-1)" fill-rule="nonzero"></path>
    </g>
</svg>
