<svg xmlns="http://www.w3.org/2000/svg" width="104" height="96">
  <g fill="none" fill-rule="evenodd" stroke="#9BAEB8" stroke-linecap="round" stroke-linejoin="round">
    <path
      d="M85.186 5.004a4.469 4.469 0 0 0-4.91-3.98L6.233 8.812a4.47 4.47 0 0 0-3.977 4.914L10.34 90.67a4.47 4.47 0 0 0 4.91 3.979l74.043-7.787a4.47 4.47 0 0 0 3.977-4.913L85.186 5.003h0z"
    />
    <path
      d="M79.814 10.098a2.867 2.867 0 0 0-1.053-1.931 2.897 2.897 0 0 0-2.116-.623L10.69 14.44a2.89 2.89 0 0 0-1.94 1.048 2.863 2.863 0 0 0-.628 2.106l6.625 62.717 71.693-7.497-6.626-62.717zM13.456 68.09l23.465-2.453m24.785-2.593 23.443-2.451"
    />
    <g stroke-width="1.5">
      <path
        d="M43.596 70.88c-6.705.744-4.6-8.586-13.925-11.892l37.685-3.93c-8.427 5.155-4.414 13.85-11.13 14.504l-12.63 1.317v.001zm4.918-13.856c-2.254-5.77-5.303-9.888-9.49-11.646m9.49 11.646c-1.605-9.54-.765-16.952 5.824-22.984"
      />
      <path
        d="M54.927 47.871c.452 2.176.055 4.157-1.189 5.943-1.243 1.786-2.97 2.855-5.18 3.205-.452-2.176-.055-4.157 1.188-5.943 1.243-1.786 2.97-2.854 5.18-3.205h0zm-8.778-15.098c1.585.716 2.658 1.871 3.219 3.466.56 1.594.445 3.161-.346 4.701-1.585-.716-2.658-1.872-3.219-3.466-.56-1.595-.445-3.162.346-4.7h0zm21.046.46c-1.666 1.863-3.752 2.87-6.258 3.018-2.506.148-4.698-.605-6.575-2.259-1.878-1.654-2.891-3.724-3.041-6.21-.15-2.488.61-4.663 2.275-6.527l4.742-5.302c.474-.53.896-.385.939.322l.306 5.083 5.119-.302c.865-.051 1.322.352 1.374 1.21l.306 5.08 5.12-.302c.713-.042.908.358.433.888l-4.74 5.301h0zm-30.562 2.782c1.622 1.005 2.648 2.432 3.079 4.28.43 1.849.14 3.578-.873 5.188-1.013 1.61-2.45 2.628-4.313 3.055-1.862.427-3.605.139-5.227-.866l-4.614-2.86c-.461-.286-.406-.619.125-.74l3.807-.873-.88-3.779c-.148-.636.098-1.03.74-1.177l3.806-.873-.88-3.778c-.122-.526.155-.722.617-.436l4.613 2.86h0z"
      />
    </g>
    <path
      d="m16.245 70.586 3.542-.371m3.536-.37 3.542-.37m3.537-.37 3.542-.371M65.793 65.4l3.542-.37m3.536-.371 3.542-.37m3.537-.37 3.542-.371M16.929 77.063l3.542-.37m3.536-.371 3.543-.37m3.535-.37 3.543-.371m3.536-.37 3.542-.37m3.536-.371 3.542-.37m3.536-.37 3.543-.371m3.535-.37 3.542-.371m3.537-.37 3.542-.371m3.536-.37 3.542-.37m3.536-.37 3.543-.371M14.362 74.04l2.198-.23m3.536-.37 3.542-.37m3.536-.37 3.542-.371m3.537-.37 3.542-.37m24.77-2.593 3.543-.37m3.536-.371 3.542-.37m3.536-.37 3.542-.371m3.537-.37 1.973-.207M47.6 91.087c14.011.974 38.195 3.106 44.973 3.576 2.464.171 4.602-1.675 4.775-4.124l5.4-76.739c.173-2.449-1.686-4.572-4.15-4.744a4725.77 4725.77 0 0 0-13.164-.875"
      opacity=".6"
    />
  </g>
</svg>
