<svg xmlns="http://www.w3.org/2000/svg" width="25" viewBox="0 0 25 13">
  <path
    d="M4.416.5a.401.401 0 0 1 .347.599L3.316 3.624a.406.406 0 0 0-.053.199v1.69c0 .22.18.4.4.4H4.71c.22 0 .398.176.4.396l.04 5.788a.4.4 0 0 1-.397.403H.9c-.22 0-.4-.18-.4-.4V5.792c0-1.343.464-2.644 1.313-3.684L3.005.648A.398.398 0 0 1 3.315.5h1.1zm5.714 0a.4.4 0 0 1 .347.599L9.031 3.624a.395.395 0 0 0-.053.199v1.69c0 .22.18.4.4.4h1.045c.22 0 .399.176.4.396l.04 5.788a.4.4 0 0 1-.396.403H6.614c-.22 0-.4-.18-.4-.4V5.792c0-1.343.464-2.644 1.313-3.684L8.72.648A.398.398 0 0 1 9.03.5h1.1zM24.1.5c.22 0 .4.18.4.4v6.308a5.825 5.825 0 0 1-1.313 3.684l-1.192 1.46a.398.398 0 0 1-.31.148h-1.1a.4.4 0 0 1-.348-.599l1.447-2.525a.406.406 0 0 0 .053-.199v-1.69c0-.22-.18-.4-.4-.4H20.29a.399.399 0 0 1-.4-.396L19.85.903A.4.4 0 0 1 20.247.5H24.1zm-5.715 0a.4.4 0 0 1 .4.4v6.308a5.824 5.824 0 0 1-1.312 3.684l-1.193 1.46a.398.398 0 0 1-.31.148h-1.1a.4.4 0 0 1-.347-.599l1.446-2.525a.395.395 0 0 0 .053-.199v-1.69c0-.22-.18-.4-.4-.4h-1.045a.398.398 0 0 1-.4-.396l-.04-5.788A.4.4 0 0 1 14.533.5h3.852z"
    fill="#000"
    fill-rule="evenodd"
    opacity=".5"
  />
</svg>
