<svg xmlns="http://www.w3.org/2000/svg" width="25" viewBox="0 0 25 15">
  <path
    d="m2.472 13.95 1.051-2.966H9.57l1.052 2.967h2.01L7.936.805H5.25L.5 13.951h1.972zm6.479-4.713-4.808.001 2.329-6.61h.15l2.329 6.61zm9.54 4.958c1.953 0 2.779-1.127 3.117-1.596h.131c0 .845.62 1.352 1.428 1.352l1.333.001v-1.69h-.45c-.301 0-.489-.15-.489-.451V4.148h-1.86v1.408h-.15c-.375-.525-1.276-1.652-3.173-1.652-2.704 0-4.601 2.197-4.601 5.145 0 2.986 1.99 5.146 4.714 5.146zm.225-1.71c-1.709 0-3.061-1.351-3.061-3.417 0-2.01 1.296-3.437 3.042-3.437 1.672 0 3.061 1.259 3.061 3.437 0 1.86-1.183 3.418-3.042 3.418z"
    fill="#000"
    fill-rule="evenodd"
    opacity=".5"
  />
</svg>
