<svg xmlns="http://www.w3.org/2000/svg" width="25" viewBox="0 0 25 25">
  <path
    d="M21.833.5A2.666 2.666 0 0 1 24.5 3.167v18.666a2.667 2.667 0 0 1-2.667 2.667H3.167A2.667 2.667 0 0 1 .5 21.833V3.167A2.667 2.667 0 0 1 3.167.5zm-.33 16H3.497a1 1 0 0 0-1 1v4a1 1 0 0 0 1 1h18.004a1 1 0 0 0 1-1v-4a1 1 0 0 0-1-1zm-.003-5h-18a1 1 0 0 0 0 2h18a1 1 0 0 0 0-2zm0-9h-18a1 1 0 0 0-1 1v4a1 1 0 0 0 1 1h18a1 1 0 0 0 1-1v-4a1 1 0 0 0-1-1z"
    fill="#000"
    fill-rule="evenodd"
    opacity=".5"
  />
</svg>
