<svg xmlns="http://www.w3.org/2000/svg" width="29" viewBox="0 0 29 11">
  <path
    d="M1.362 8.796c.47 0 .848.379.848.849a.844.844 0 0 1-.848.835c-.47 0-.862-.379-.862-.835 0-.47.392-.849.862-.849zM4.289.52v3.864h.104c.287-.561.992-1.057 1.971-1.057 1.54 0 2.533 1.148 2.533 2.61v4.373H7.604V6.16c0-.967-.73-1.62-1.605-1.62-.927 0-1.71.705-1.71 1.671v4.1H2.997V.52h1.292zm7.34 1.031v1.945h2.01v1.123h-2.01V8.3c0 .614.247.875.848.875h1.083v1.135h-1.096c-1.28 0-2.128-.587-2.128-1.997V4.62h-1.24V3.496h1.318V1.551h1.214zm9.988 1.776c1.489 0 2.48 1.07 2.48 2.506v4.477h-1.292V6.264c0-1.136-.587-1.723-1.462-1.723-.848 0-1.566.613-1.566 1.736v4.033h-1.292V6.08c0-.965-.653-1.54-1.502-1.54-.835 0-1.553.68-1.553 1.698v4.072h-1.292l-.001-6.814h1.292v.875h.104c.3-.548.914-1.044 1.867-1.044.98 0 1.671.47 2.037 1.174h.104c.418-.77 1.136-1.174 2.075-1.174zM27.182.52v8.668H28.5v1.122h-3.942V9.188h1.331V1.656h-1.331V.52h2.624z"
    fill="#181918"
    fill-rule="evenodd"
    opacity=".5"
  />
</svg>
