<svg viewBox="0 0 32 32" xmlns="http://www.w3.org/2000/svg">
  <path
    d="M10.063 29.002c12.076 0 18.68-10.005 18.68-18.68 0-.285 0-.567-.019-.85A13.289 13.289 0 0 0 32 6.076c-1.198.53-2.47.879-3.77 1.032a6.59 6.59 0 0 0 2.886-3.63c-1.29.764-2.7 1.303-4.17 1.593a6.57 6.57 0 0 0-11.187 5.988 18.64 18.64 0 0 1-13.532-6.86 6.57 6.57 0 0 0 2.033 8.764 6.504 6.504 0 0 1-2.98-.822v.084a6.566 6.566 0 0 0 5.267 6.435 6.54 6.54 0 0 1-2.964.113 6.573 6.573 0 0 0 6.133 4.56A13.17 13.17 0 0 1 0 26.054a18.582 18.582 0 0 0 10.063 2.944"
    fill="#1DA1F2"
  />
</svg>
