<svg viewBox="0 0 32 32" xmlns="http://www.w3.org/2000/svg">
  <path
    d="M15.924 9.922a.439.439 0 0 0-.434.433l-.177 8.866.178 3.218c.003.235.197.43.433.43s.43-.195.433-.433v.004l.193-3.219-.193-8.867a.437.437 0 0 0-.433-.432zm12.14 5.102c-.54 0-1.054.11-1.522.306a6.947 6.947 0 0 0-9.434-5.86c-.298.115-.377.234-.38.463v12.492c.004.242.19.442.426.466l10.91.006a3.936 3.936 0 1 0 0-7.873zM10.886 22.56v-.002l.226-3.338-.226-7.276a.328.328 0 0 0-.325-.323.327.327 0 0 0-.324.323l-.202 7.276.202 3.34c.005.178.148.32.324.32a.328.328 0 0 0 .325-.321v.001zm-2.952.32a.275.275 0 0 0 .27-.267l.264-3.394-.265-6.497a.274.274 0 0 0-.27-.267.273.273 0 0 0-.269.267l-.234 6.497.234 3.395a.273.273 0 0 0 .27.266zm5.297-10.868a.38.38 0 0 0-.38.377l-.169 6.832.17 3.287a.378.378 0 0 0 .757-.002v.002l.19-3.287-.19-6.832a.38.38 0 0 0-.378-.377zM2.802 22.657c.083 0 .15-.066.16-.156l.34-3.286-.34-3.41c-.01-.091-.077-.157-.16-.157-.084 0-.152.066-.16.157l-.299 3.41.299 3.285c.008.091.076.157.16.157zm2.546.188a.22.22 0 0 0 .214-.212l.302-3.418-.302-3.25a.218.218 0 0 0-.214-.211.218.218 0 0 0-.216.212l-.266 3.25.266 3.417c.008.12.1.212.216.212zm6.543.03a.354.354 0 0 0 .351-.35v.003l.209-3.309-.209-7.09a.354.354 0 0 0-.351-.35.353.353 0 0 0-.352.35l-.185 7.09.185 3.308a.352.352 0 0 0 .352.348zm2.69.013a.41.41 0 0 0 .405-.404v.002-.002l.172-3.263-.172-8.13a.411.411 0 0 0-.406-.405.41.41 0 0 0-.406.405l-.153 8.127.153 3.268a.41.41 0 0 0 .406.402zm-5.338-.016a.3.3 0 0 0 .296-.294l.246-3.36-.246-7.039a.3.3 0 0 0-.296-.294.3.3 0 0 0-.297.295l-.218 7.038.218 3.361a.298.298 0 0 0 .297.293zM4.07 15.527c-.1 0-.18.08-.188.185L3.6 19.215l.282 3.39a.193.193 0 0 0 .188.184c.098 0 .178-.08.187-.184l.32-3.39-.32-3.504c-.009-.104-.09-.184-.187-.184zm2.565-1.837a.247.247 0 0 0-.242.24l-.25 5.287.25 3.417c.007.133.113.239.242.239s.235-.106.243-.24v.001l.283-3.417-.283-5.288a.25.25 0 0 0-.243-.24zm-4.957 2.65c-.01-.076-.066-.129-.133-.129-.068 0-.124.055-.133.13l-.315 2.873.315 2.81c.01.076.065.13.133.13.067 0 .122-.053.133-.129l.358-2.81-.358-2.874zm-1.316.972c-.067 0-.12.052-.128.125L0 19.214l.234 1.747c.009.074.061.125.128.125.065 0 .117-.05.128-.124l.277-1.748-.277-1.778c-.01-.073-.063-.124-.128-.124z"
    fill="#EE7C25"
    fill-rule="evenodd"
  />
</svg>
