<svg xmlns="http://www.w3.org/2000/svg" xmlns:xlink="http://www.w3.org/1999/xlink" viewBox="0 0 25 26">
  <defs>
    <radialGradient
      id="a"
      cx="26.563%"
      cy="107.702%"
      r="99.107%"
      fx="26.563%"
      fy="107.702%"
      gradientTransform="matrix(0 -1 .99975 0 -.811 1.343)"
    >
      <stop offset="0%" stop-color="#FD5" />
      <stop offset="10%" stop-color="#FD5" />
      <stop offset="50%" stop-color="#FF543E" />
      <stop offset="100%" stop-color="#C837AB" />
    </radialGradient>
    <radialGradient
      id="c"
      cx="-16.751%"
      cy="7.204%"
      r="44.302%"
      fx="-16.751%"
      fy="7.204%"
      gradientTransform="scale(.99975 1) rotate(78.678 -.168 .072)"
    >
      <stop offset="0%" stop-color="#3771C8" />
      <stop offset="12.8%" stop-color="#3771C8" />
      <stop offset="100%" stop-color="#60F" stop-opacity="0" />
    </radialGradient>
    <path
      id="b"
      d="M16.448-.001h.278l.506.002c1.735.006 2.196.025 2.568.07l.1.012.208.03c1.197.172 2.2.65 3.021 1.433.46.443.777.875 1.062 1.455.348.708.519 1.378.597 2.374.012.147.019 1.792.022 3.91v.538l.001.276.001.846v3.745l-.001.276v.539c-.004 2.119-.01 3.767-.022 3.914-.078.98-.249 1.656-.585 2.35a5.193 5.193 0 0 1-3.388 2.773c-.539.14-1.026.205-1.866.245-.173.009-1.285.014-2.795.016h-.49l-.253.001h-.523l-.267.001h-4.477a338.773 338.773 0 0 1-4.334-.022c-.726-.034-1.29-.107-1.802-.239a5.224 5.224 0 0 1-3.387-2.767C.278 21.065.116 20.415.03 19.38c-.016-.193-.024-.917-.028-2.87l-.001-.646v-.233l-.002-4.721V8.365l.002-.538c.005-1.852.022-2.38.064-2.762l.012-.102.013-.1.023-.159c.173-1.195.65-2.2 1.437-3.017A4.94 4.94 0 0 1 2.975.643C3.696.284 4.357.117 5.42.029c.181-.015.821-.023 2.486-.027h.387L8.5 0l1.989-.002h.293zm-3.043 3.245H11.4c-1.596.003-1.946.017-2.773.054-.975.045-1.641.2-2.224.426A4.49 4.49 0 0 0 4.781 4.78c-.51.51-.823 1.02-1.057 1.623-.228.582-.382 1.248-.426 2.223-.01.226-.019.416-.025.605l-.007.19c-.016.516-.022 1.11-.023 2.446v1.073c.002 2.003.014 2.338.055 3.24.045.975.2 1.64.426 2.223a4.49 4.49 0 0 0 1.056 1.622c.51.51 1.02.824 1.622 1.058.583.226 1.249.38 2.224.425.864.04 1.208.053 2.998.055h1.557c1.79-.002 2.134-.015 2.998-.055.975-.044 1.642-.199 2.224-.425a4.474 4.474 0 0 0 1.622-1.058 4.48 4.48 0 0 0 1.057-1.622c.225-.583.38-1.249.426-2.223.037-.827.05-1.177.054-2.773l.001-.467V11.4c-.004-1.595-.018-1.946-.055-2.773-.046-.975-.2-1.64-.426-2.223a4.475 4.475 0 0 0-1.057-1.623 4.485 4.485 0 0 0-1.622-1.056c-.584-.227-1.25-.381-2.225-.426l-.605-.025-.19-.007c-.451-.014-.962-.02-1.978-.022zM11.582 4.89v.003h2.014c.86.003 1.318.009 1.727.021l.187.006.595.025c.894.041 1.378.19 1.701.316a2.83 2.83 0 0 1 1.053.685c.32.32.519.626.685 1.053.126.323.275.808.316 1.7.04.892.052 1.208.053 3.174v1.054c-.001 1.967-.013 2.282-.053 3.174-.041.893-.19 1.377-.316 1.7a2.838 2.838 0 0 1-.685 1.052c-.32.32-.625.52-1.053.685-.322.126-.807.275-1.7.316l-.409.018-.187.007c-.526.02-1.043.026-2.341.028h-1.53c-1.757-.002-2.082-.014-2.937-.053-.893-.041-1.378-.19-1.7-.316a2.833 2.833 0 0 1-1.054-.685c-.32-.32-.52-.625-.686-1.053-.125-.322-.274-.807-.315-1.7-.039-.854-.05-1.18-.052-2.937v-1.53c.002-1.757.013-2.081.052-2.935.04-.894.19-1.378.315-1.701.166-.428.365-.733.686-1.054.32-.32.626-.519 1.053-.685.323-.126.808-.275 1.701-.316l.508-.022.235-.008c.474-.015.999-.02 2.137-.022zm.822 2.808a4.704 4.704 0 1 0 0 9.406 4.704 4.704 0 0 0 0-9.404zm0 1.65a3.054 3.054 0 1 1-.002 6.106 3.054 3.054 0 0 1 .002-6.105zm4.89-2.935a1.1 1.1 0 0 0 0 2.199 1.1 1.1 0 0 0-.001-2.199z"
    />
  </defs>
  <g transform="translate(.001 .501)" fill="none" fill-rule="evenodd">
    <use fill="url(#a)" xlink:href="#b" />
    <use fill="url(#c)" xlink:href="#b" />
  </g>
</svg>
