<svg viewBox="0 0 32 32" xmlns="http://www.w3.org/2000/svg">
  <g fill="none" fill-rule="evenodd">
    <path
      d="M31.252 8.488a4.008 4.008 0 0 0-2.824-2.823C25.941 5 15.958 5 15.958 5s-9.977 0-12.47.665A4.006 4.006 0 0 0 .665 8.488C0 10.976 0 16.17 0 16.17s0 5.194.665 7.682a4.001 4.001 0 0 0 2.823 2.823c2.493.666 12.47.666 12.47.666s9.983 0 12.47-.666a4.002 4.002 0 0 0 2.824-2.823c.665-2.488.665-7.682.665-7.682s0-5.194-.665-7.682"
      fill="#D9252A"
    />
    <path fill="#FFFFFE" d="m12.77 20.958 8.291-4.788-8.291-4.788v9.576" />
  </g>
</svg>
