<svg viewBox="0 0 32 32" xmlns="http://www.w3.org/2000/svg">
  <path
    d="M16 .053C7.19.053.047 7.194.047 16.003c0 8.81 7.142 15.951 15.951 15.951 8.81 0 15.951-7.14 15.951-15.95C31.95 7.194 24.81.054 16 .054V.053zm7.314 23.005a.992.992 0 0 1-1.367.33c-3.745-2.288-8.46-2.806-14.013-1.537a.994.994 0 0 1-.442-1.939c6.076-1.389 11.288-.79 15.493 1.779a.995.995 0 0 1 .33 1.367zm1.953-4.343c-.36.585-1.126.77-1.71.41-4.288-2.636-10.824-3.4-15.896-1.86a1.246 1.246 0 0 1-1.552-.828 1.245 1.245 0 0 1 .83-1.551c5.793-1.758 12.994-.907 17.918 2.12.585.36.77 1.125.41 1.709zm.167-4.523c-5.14-3.054-13.623-3.334-18.531-1.845a1.49 1.49 0 0 1-1.86-.994 1.49 1.49 0 0 1 .994-1.86c5.634-1.711 15.001-1.38 20.92 2.133.71.42.943 1.336.522 2.044a1.49 1.49 0 0 1-2.044.522z"
    fill="#1ED760"
  />
</svg>
