<svg viewBox="0 0 32 32" xmlns="http://www.w3.org/2000/svg">
  <path
    d="M31.976 10.886c-.007-.039-.014-.078-.024-.116l-.022-.066a1.072 1.072 0 0 0-.035-.1l-.03-.067c-.015-.031-.03-.062-.048-.092-.012-.022-.026-.042-.039-.063a.964.964 0 0 0-.058-.084c-.015-.02-.03-.04-.047-.059-.022-.026-.045-.05-.068-.075l-.055-.053a.96.96 0 0 0-.078-.065c-.021-.016-.041-.033-.063-.047-.008-.006-.014-.013-.023-.018L16.762.231a1.374 1.374 0 0 0-1.525 0L.612 9.981l-.022.017c-.022.015-.042.031-.063.047a1.678 1.678 0 0 0-.133.119 1.192 1.192 0 0 0-.115.134c-.02.028-.04.055-.058.084l-.04.064c-.017.03-.032.06-.046.09-.01.022-.022.045-.03.067a1.001 1.001 0 0 0-.036.1l-.022.065a1.465 1.465 0 0 0-.034.175c-.009.06-.013.119-.013.18v9.751c0 .06.004.121.013.18.003.022.009.039.013.06.007.038.013.077.026.116l.021.067c.011.034.022.069.035.1.009.022.021.043.03.065.014.03.03.06.047.092a.657.657 0 0 0 .04.062c.018.03.038.056.06.082.014.022.03.04.047.06.022.026.043.051.069.074.017.018.034.04.056.052l.077.066c.021.017.043.03.06.046.009.005.014.013.022.017l14.621 9.755c.231.155.496.233.763.232.267-.002.532-.078.763-.232l14.625-9.75.022-.016c.022-.015.042-.031.063-.047.027-.021.053-.043.078-.066l.055-.053a.959.959 0 0 0 .115-.135c.02-.026.04-.054.058-.083.014-.02.027-.042.04-.063.017-.03.032-.06.047-.092l.03-.066a.992.992 0 0 0 .035-.1c.008-.023.016-.045.022-.067a1.49 1.49 0 0 0 .024-.116c.004-.02.009-.039.01-.06.009-.059.013-.118.013-.179v-9.75c0-.06-.005-.12-.012-.18-.004-.02-.01-.038-.014-.06h.002zM16 19.253 11.137 16 16 12.747 20.863 16 16 19.253zm-1.375-8.895-5.962 3.988-4.812-3.22 10.774-7.182v6.414zM6.19 16l-3.44 2.3v-4.6L6.19 16zm2.473 1.655 5.962 3.987v6.414L3.85 20.873l4.812-3.219v.001zm8.712 3.986 5.961-3.987 4.813 3.22-10.774 7.181v-6.414zm8.434-5.64 3.44-2.302v4.602L25.81 16zm-2.473-1.655-5.961-3.987V3.944l10.774 7.183-4.813 3.219z"
  />
</svg>
