<svg width="64" height="64" viewBox="0 0 64 64" xmlns="http://www.w3.org/2000/svg">
    <path d="M3.776 36.545c2.21 13.55 13.97 23.89 28.143 23.89 15.75 0 28.516-12.767 28.516-28.516 0-10.667-5.857-19.967-14.531-24.857.08-.148.687-1.176 2.33-1.566 1.293-.205 2.458.421 2.458.421a20.09 20.09 0 0 0-.639-.465C58.48 11.239 64 20.934 64 31.919 64 49.637 49.637 64 31.92 64 17.188 64 4.776 54.072 1.01 40.543c.053.17.104.331.153.482 0 0-.566-1.862 1.151-3.503.446-.36.943-.612 1.491-.756zM34.751 3.54l.214.023c-1-.106-2.017-.16-3.046-.16-3.02 0-5.93.468-8.66 1.338A27.522 27.522 0 0 1 34.75 3.541z" fill="#047857" fill-rule="nonzero"/>
</svg>
