<svg xmlns="http://www.w3.org/2000/svg" width="78" viewBox="0 0 78 16">
  <path
    d="M14.5.5A1.5 1.5 0 0 1 16 2v9a1.5 1.5 0 0 1-1.5 1.5h-3v2.25a.75.75 0 0 1-.75.75h-.375l-.113-.009a.782.782 0 0 1-.413-.209L7.075 12.5H2.5A1.5 1.5 0 0 1 1 11V2A1.5 1.5 0 0 1 2.5.5zm-.236.971H2.735a.7.7 0 0 0-.7.7v8.549a.7.7 0 0 0 .7.7h4.892l2.489 2.489v-2.49h4.148a.7.7 0 0 0 .7-.7V2.172a.7.7 0 0 0-.7-.7zm12.415 1.768c.685 0 1.276.106 1.772.318.496.213.937.5 1.322.865L29.364 5l-.049.06-.055.047a.28.28 0 0 1-.169.043.325.325 0 0 1-.179-.062 8.174 8.174 0 0 1-.224-.153 5.686 5.686 0 0 0-.306-.195 2.605 2.605 0 0 0-.415-.195 3.477 3.477 0 0 0-.56-.152 3.816 3.816 0 0 0-.734-.062c-.498 0-.954.085-1.368.257a3.06 3.06 0 0 0-1.07.73 3.354 3.354 0 0 0-.698 1.158c-.167.455-.25.964-.25 1.527 0 .58.083 1.099.25 1.554.167.455.394.84.682 1.154.288.314.63.553 1.024.718.394.164.819.247 1.274.247.277 0 .526-.016.747-.049.221-.032.426-.083.615-.153.188-.07.364-.157.526-.263a4.12 4.12 0 0 0 .491-.38c.074-.065.145-.098.215-.098.069 0 .132.028.188.085l.494.54-.168.183a4.01 4.01 0 0 1-1.22.85c-.544.247-1.199.37-1.966.37a4.63 4.63 0 0 1-1.827-.348 3.993 3.993 0 0 1-1.397-.974 4.406 4.406 0 0 1-.897-1.505 5.63 5.63 0 0 1-.319-1.93c0-.703.114-1.346.342-1.931a4.396 4.396 0 0 1 .959-1.508c.411-.42.904-.747 1.478-.979a5.05 5.05 0 0 1 1.901-.347zm48.737.695v2.269h1.886v.838h-1.886v3.952l.006.133c.019.211.084.373.196.485a.705.705 0 0 0 .52.201.906.906 0 0 0 .315-.049 1.28 1.28 0 0 0 .231-.107c.065-.039.12-.075.166-.107a.218.218 0 0 1 .12-.049c.06 0 .115.037.162.11l.338.553-.124.107a2.239 2.239 0 0 1-.597.332c-.282.106-.572.16-.871.16-.52 0-.92-.146-1.2-.436-.279-.29-.418-.709-.418-1.255v-4.03h-.794l-.065-.007a.239.239 0 0 1-.11-.055c-.048-.04-.072-.105-.072-.191v-.462l1.08-.136.266-2.035.015-.06a.24.24 0 0 1 .07-.099.267.267 0 0 1 .181-.062h.585zM33.934 5.97c.48 0 .915.08 1.303.24.388.16.717.388.988.683.27.294.479.65.624 1.069.145.418.218.885.218 1.4 0 .52-.073.989-.218 1.405a3.024 3.024 0 0 1-.624 1.066c-.271.294-.6.52-.988.679a3.429 3.429 0 0 1-1.303.237 3.43 3.43 0 0 1-1.304-.237 2.738 2.738 0 0 1-.991-.68 3.031 3.031 0 0 1-.63-1.065 4.17 4.17 0 0 1-.221-1.404c0-.516.073-.983.22-1.401.148-.418.358-.775.631-1.07.273-.294.603-.521.991-.682.388-.16.822-.24 1.303-.24zm28.515 0c.394 0 .758.066 1.092.198.334.132.622.323.865.572.242.25.432.557.568.923.137.366.205.783.205 1.251 0 .182-.02.304-.058.364-.04.06-.113.091-.221.091h-4.382l.011.243c.023.316.075.597.159.843.103.307.246.564.428.77.183.206.4.36.65.462.252.101.533.152.846.152.29 0 .54-.033.75-.1a3.685 3.685 0 0 0 .923-.436c.102-.067.19-.1.264-.1.095 0 .168.036.22.11l.325.422-.112.126c-.118.121-.251.23-.401.326-.2.128-.413.233-.64.315a4.214 4.214 0 0 1-1.427.247c-.455 0-.874-.077-1.258-.23a2.761 2.761 0 0 1-.994-.677 3.074 3.074 0 0 1-.653-1.101c-.156-.438-.234-.94-.234-1.508 0-.46.07-.889.21-1.287.142-.399.344-.745.609-1.037.264-.292.587-.522.968-.689.381-.167.81-.25 1.287-.25zm-17.225 0c.347 0 .655.055.926.165.271.111.5.272.69.485.188.212.332.473.431.783.1.31.15.664.15 1.063v4.192h-1.157V8.466l-.005-.188c-.025-.424-.136-.752-.333-.986-.225-.266-.553-.4-.982-.4-.19 0-.371.034-.542.101a1.323 1.323 0 0 0-.452.296c-.13.13-.233.294-.309.491a1.901 1.901 0 0 0-.113.686v4.192H42.37V8.466l-.005-.192c-.024-.433-.128-.764-.314-.991-.212-.26-.522-.39-.93-.39-.285 0-.55.077-.796.23a2.586 2.586 0 0 0-.672.628v4.907h-1.158V6.074h.69l.077.006c.12.023.198.1.235.234l.084.676.15-.173c.203-.222.425-.409.666-.561.3-.19.65-.286 1.05-.286.446 0 .807.123 1.082.37s.473.58.594 1.001a2.069 2.069 0 0 1 1.46-1.293 2.65 2.65 0 0 1 .64-.078zm10.673 0c.347 0 .655.055.926.165.271.111.5.272.69.485.188.212.332.473.431.783.1.31.15.664.15 1.063v4.192h-1.157V8.466l-.005-.188c-.025-.424-.136-.752-.333-.986-.225-.266-.553-.4-.981-.4-.191 0-.372.034-.543.101a1.323 1.323 0 0 0-.452.296c-.13.13-.233.294-.309.491a1.9 1.9 0 0 0-.114.686v4.192h-1.157V8.466l-.004-.192c-.024-.433-.128-.764-.314-.991-.212-.26-.522-.39-.93-.39-.285 0-.55.077-.796.23a2.586 2.586 0 0 0-.672.628v4.907H49.17V6.074h.688l.078.006c.12.023.198.1.234.234l.085.676.15-.173c.203-.222.425-.409.666-.561.3-.19.65-.286 1.05-.286.446 0 .807.123 1.082.37s.473.58.594 1.001a2.09 2.09 0 0 1 .361-.617 2.11 2.11 0 0 1 1.099-.676 2.65 2.65 0 0 1 .64-.078zm14.033 0c.36 0 .678.06.953.179.275.119.505.288.689.507.184.218.324.482.419.79.095.307.143.647.143 1.02v4.192h-1.157V8.466l-.005-.182c-.025-.412-.137-.738-.336-.978-.228-.276-.575-.413-1.043-.413-.343 0-.662.082-.96.247-.296.164-.57.388-.822.67v4.848h-1.157V6.074h.69l.077.006c.12.023.198.1.234.234l.091.715.176-.182c.24-.234.5-.429.783-.585.353-.195.762-.292 1.225-.292zm-35.997.91c-.329 0-.615.056-.858.169a1.6 1.6 0 0 0-.607.487 2.162 2.162 0 0 0-.364.784c-.08.31-.12.66-.12 1.05s.04.738.12 1.046c.08.307.201.566.364.777.162.21.365.371.607.484.243.112.53.169.858.169.65 0 1.136-.218 1.456-.653.321-.436.481-1.044.481-1.824 0-.784-.16-1.395-.48-1.833-.321-.437-.806-.656-1.456-.656zM9.25 3.5v2.25h2.25v1.5H9.25V9.5h-1.5V7.25H5.5v-1.5h2.25V3.5h1.5zm53.225 3.32c-.559 0-.999.162-1.32.485-.32.322-.52.77-.597 1.342h3.581c0-.269-.037-.515-.11-.738a1.657 1.657 0 0 0-.325-.579 1.464 1.464 0 0 0-.524-.377 1.776 1.776 0 0 0-.705-.133z"
    fill="currentColor"
    fill-rule="evenodd"
  />
</svg>
