<svg xmlns="http://www.w3.org/2000/svg" width="41" viewBox="0 0 41 12">
  <path
    d="M7.842 4.222a3.07 3.07 0 0 1 .135 4.303l-.135.139-2.298 2.224c-1.266 1.225-3.324 1.225-4.59 0s-1.266-3.217 0-4.442l.967-.936c-.006.515.078 1.03.26 1.527l-.305.295a1.831 1.831 0 0 0 0 2.664c.76.74 1.993.74 2.752 0L6.92 7.778a1.831 1.831 0 0 0 0-2.664.598.598 0 0 1 0-.892.67.67 0 0 1 .922 0zm11.424-2.506v7.989h4.03v1.025h-5.291V1.716h1.26zm6.526 2.642v6.372h-1.157V4.358h1.157zm5.316-.1c.36 0 .678.057.953.173.275.115.505.278.689.49.184.212.324.467.419.764.095.298.143.627.143.988v4.057h-1.157V6.673l-.005-.176c-.025-.398-.137-.714-.336-.947-.228-.266-.575-.4-1.044-.4-.342 0-.661.08-.958.24-.297.16-.571.375-.822.648v4.692h-1.157V4.358h.689l.077.007c.12.021.198.097.235.226l.09.692.176-.177c.24-.226.5-.414.783-.565.353-.19.762-.283 1.225-.283zm5.155-2.793v5.453h.299l.082-.003a.542.542 0 0 0 .133-.031.588.588 0 0 0 .188-.142l2.08-2.157.065-.063a.871.871 0 0 1 .13-.1.466.466 0 0 1 .26-.064h1.053l-2.424 2.497-.09.101-.09.088a1.034 1.034 0 0 1-.197.145c.078.05.148.108.21.173.064.065.123.14.18.223l2.573 3.145h-1.04l-.09-.006a.457.457 0 0 1-.153-.047.636.636 0 0 1-.192-.167L37.075 7.9l-.065-.078a.388.388 0 0 0-.13-.095.777.777 0 0 0-.292-.041h-.325v3.044H35.1V1.465h1.163zm-25.208-.353a3.072 3.072 0 0 1 0 4.442l-.967.936a4.218 4.218 0 0 0-.26-1.52l.305-.302a1.831 1.831 0 0 0 0-2.664 1.983 1.983 0 0 0-2.752 0L5.089 4.222a1.831 1.831 0 0 0 0 2.664.598.598 0 0 1 0 .892.67.67 0 0 1-.922 0 3.07 3.07 0 0 1-.135-4.303l.135-.139 2.298-2.224c1.266-1.225 3.324-1.225 4.59 0zm14.164.44a.852.852 0 0 1 .764.495.723.723 0 0 1 0 .616.881.881 0 0 1-.445.425.813.813 0 0 1-.319.062.79.79 0 0 1-.315-.062.831.831 0 0 1-.438-.425.748.748 0 0 1 0-.616.789.789 0 0 1 .178-.258.857.857 0 0 1 .26-.173.791.791 0 0 1 .315-.063z"
    fill="currentColor"
    fill-rule="evenodd"
  />
</svg>
