<svg xmlns="http://www.w3.org/2000/svg" width="28" height="22" viewBox="0 0 28 22">
    <g fill="none" fill-rule="evenodd">
        <g fill="#2B8BF2" fill-rule="nonzero">
            <g>
                <path d="M85.27 20.867l2.793-3.841c.56-.779.312-1.537-.602-1.537h-1.516C85.25 10.267 80.65 6 75.013 6c-2.835 0-5.42 1.152-7.278 2.917-.706.592-.727 1.444-.301 1.994.456.581 1.277.758 2.118.104 1.412-1.34 3.343-2.191 5.46-2.191 4.122 0 7.403 2.97 8.068 6.665h-1.64c-.894 0-1.164.758-.603 1.527l2.793 3.851c.457.623 1.184.613 1.64 0zM75.013 28c2.844 0 5.43-1.152 7.288-2.907.706-.602.727-1.464.301-2.004-.457-.581-1.277-.758-2.118-.104-1.401 1.35-3.343 2.191-5.471 2.191-4.122 0-7.392-2.959-8.067-6.665h1.62c.892 0 1.162-.748.591-1.527l-2.782-3.851c-.457-.623-1.184-.613-1.64 0l-2.794 3.851c-.57.769-.311 1.527.603 1.527h1.536C64.786 23.733 69.375 28 75.013 28z" transform="translate(-294 -133) translate(233 127)"/>
            </g>
        </g>
    </g>
</svg>
